<?xml version="1.0" encoding="iso-8859-1"?>
<!-- Generator: Adobe Illustrator 16.0.0, SVG Export Plug-In . SVG Version: 6.00 Build 0)  -->
<!DOCTYPE svg PUBLIC "-//W3C//DTD SVG 1.1//EN" "http://www.w3.org/Graphics/SVG/1.1/DTD/svg11.dtd">
<svg version="1.1" id="Capa_1" xmlns="http://www.w3.org/2000/svg" xmlns:xlink="http://www.w3.org/1999/xlink" x="0px" y="0px"
	 width="43.094px" height="43.094px" viewBox="0 0 43.094 43.094" style="enable-background:new 0 0 43.094 43.094;"
	 xml:space="preserve">
<g>
	<path d="M27.465,16.568l-1.204,1.205l-0.796-0.795l1.205-1.205l-1.239-1.239l-1.205,1.205l-1.893-1.893l-1.014,1.013l0.289,0.288
		c0.19,0.191,0.307,0.342,0.338,0.445c0.033,0.104,0.035,0.198,0.004,0.287c-0.034,0.085-0.156,0.239-0.373,0.456l-4.082,4.082
		c-0.213,0.214-0.366,0.334-0.453,0.37c-0.09,0.033-0.186,0.033-0.286-0.002c-0.103-0.034-0.25-0.151-0.442-0.342l-0.287-0.288
		l-1.014,1.013l1.895,1.895l-1.207,1.203l1.24,1.24l1.205-1.206l0.704,0.704c0.03,0.029,0.062,0.061,0.091,0.09l-1.205,1.207
		l1.238,1.239l1.312-1.312c0.244,0.17,0.479,0.303,0.699,0.396c0.599,0.257,1.178,0.337,1.739,0.245
		c0.561-0.095,1.036-0.332,1.428-0.722c0.322-0.326,0.541-0.697,0.648-1.117c0.113-0.416,0.105-0.832-0.007-1.239
		c-0.076-0.287-0.241-0.646-0.497-1.076c0.429,0.212,0.82,0.331,1.186,0.358c0.358,0.029,0.7-0.012,1.021-0.127
		c0.321-0.11,0.601-0.289,0.844-0.53c0.333-0.333,0.542-0.736,0.621-1.21c0.083-0.473,0.017-0.966-0.196-1.477
		c-0.086-0.199-0.207-0.411-0.354-0.63l1.291-1.291L27.465,16.568z M22.841,23.347c-0.048,0.254-0.182,0.488-0.396,0.704
		c-0.254,0.256-0.542,0.405-0.869,0.441c-0.327,0.039-0.621-0.016-0.881-0.161c-0.263-0.146-0.549-0.375-0.859-0.687l-0.534-0.535
		c-0.179-0.179-0.278-0.297-0.299-0.355s-0.017-0.121,0.017-0.188c0.024-0.056,0.146-0.194,0.366-0.42l1.585-1.584l0.947,0.947
		c0.416,0.415,0.687,0.765,0.812,1.043C22.854,22.831,22.892,23.096,22.841,23.347z M25.298,20.914
		c-0.186,0.186-0.398,0.298-0.643,0.339c-0.244,0.04-0.502-0.007-0.772-0.136c-0.271-0.132-0.616-0.408-1.036-0.828l-0.802-0.802
		l1.784-1.784l0.802,0.802c0.47,0.47,0.767,0.825,0.89,1.064c0.125,0.24,0.166,0.475,0.127,0.707
		C25.608,20.51,25.491,20.721,25.298,20.914z M38.321,11.016l-0.705,0.642c-0.699,0.637-1.629,0.988-2.615,0.988
		c-1.168,0-2.332-0.495-3.194-1.356c-1.659-1.661-1.821-4.213-0.368-5.812l0.643-0.706L27.308,0L0.001,27.307l4.773,4.772
		l0.705-0.644c0.699-0.637,1.629-0.986,2.615-0.986c1.186,0,2.319,0.48,3.194,1.355c1.659,1.661,1.821,4.213,0.368,5.812
		l-0.642,0.705l4.772,4.771l27.307-27.307L38.321,11.016z M13.724,38.201c1.526-2.372,1.152-5.637-1.021-7.809
		c-1.252-1.253-2.889-1.943-4.607-1.943c-1.154,0-2.261,0.324-3.199,0.925l-2.066-2.067L27.308,2.828l2.065,2.066
		c-1.526,2.373-1.152,5.636,1.021,7.809c1.254,1.252,2.891,1.942,4.608,1.942c1.153,0,2.261-0.324,3.198-0.924l2.068,2.067
		L15.789,40.267L13.724,38.201z"/>
</g>
<g>
</g>
<g>
</g>
<g>
</g>
<g>
</g>
<g>
</g>
<g>
</g>
<g>
</g>
<g>
</g>
<g>
</g>
<g>
</g>
<g>
</g>
<g>
</g>
<g>
</g>
<g>
</g>
<g>
</g>
</svg>
