<?xml version="1.0" encoding="utf-8"?>
<!-- Generator: Adobe Illustrator 19.0.0, SVG Export Plug-In . SVG Version: 6.00 Build 0)  -->
<svg version="1.1" id="Layer_1" xmlns="http://www.w3.org/2000/svg" xmlns:xlink="http://www.w3.org/1999/xlink" x="0px" y="0px"
	 viewBox="-319 254.3 320 49.5" style="enable-background:new -319 254.3 320 49.5;" xml:space="preserve">
<style type="text/css">
	.st0{display:none;fill:#F58634;}
	.st1{fill:#242424;}
	.st2{fill:#FFFFFF;}
	.st3{fill:#8BC34A;}
</style>
<path class="st0" d="M-322.9,569.3h-310.2v-85.5h310.2V569.3z M-629,565.3h302.1v-77.5h-302.2L-629,565.3L-629,565.3z"/>
<rect x="-319" y="254.3" class="st1" width="320" height="49.5"/>
<g>
	<path class="st2" d="M-301.4,296.2l-7.4-31.4h7.6l2.4,12.9c0.7,3.7,1.3,7.8,1.9,10.9h0.1c0.5-3.4,1.3-7.2,2-11l2.7-12.9h7.5
		l2.5,13.2c0.7,3.7,1.2,7,1.7,10.5h0.1c0.5-3.5,1.2-7.2,1.8-10.9l2.6-12.9h7.2l-8.1,31.4h-7.7l-2.7-13.5c-0.6-3.2-1.1-6.1-1.5-9.7
		h-0.1c-0.6,3.5-1.1,6.5-1.8,9.7l-3,13.5H-301.4z"/>
	<path class="st2" d="M-258,264.8v12.1h11.7v-12.1h7.1v31.4h-7.1v-13.1H-258v13.1h-7.1v-31.4H-258z"/>
	<path class="st2" d="M-225.9,264.8v31.4h-7.1v-31.4H-225.9z"/>
	<path class="st2" d="M-213.7,270.8h-8.4v-6h24.1v6h-8.6v25.4h-7.1V270.8z"/>
	<path class="st2" d="M-175.5,282.9h-11.5v7.4h12.9v5.8h-20v-31.4h19.4v5.8h-12.2v6.5h11.5V282.9z"/>
	<path class="st3" d="M-157.9,262.6c3.8,0,6.7,0.7,8.6,2.1c1.9,1.4,2.9,3.4,2.9,6.2c0,1.8-0.4,3.3-1.1,4.4s-2,2.1-3.6,2.8v0.3
		c2,0.8,3.6,1.9,4.5,3.2c1,1.4,1.4,3.1,1.4,5.1c0,3.2-1,5.6-2.9,7.2s-4.8,2.4-8.6,2.4h-11.1v-33.6H-157.9z M-157.9,265.3h-6.7v11.9
		h7.6c2.4,0,4.2-0.5,5.5-1.5c1.3-1,1.9-2.5,1.9-4.4c0-2-0.7-3.5-2-4.5C-153,265.8-155.1,265.3-157.9,265.3z M-157.5,279.8h-7.1v13.6
		h8.1c2.6,0,4.6-0.6,6-1.8c1.4-1.2,2.1-2.9,2.1-5c0-2.3-0.7-4-2.2-5.2C-152.1,280.4-154.4,279.8-157.5,279.8z"/>
	<path class="st3" d="M-141.9,296.2l10.5-33.6h4.2l10.5,33.6h-3.2l-3.4-11h-12.3l-3.4,11H-141.9z M-134.7,282.5h10.7l-5.3-17.7
		L-134.7,282.5z"/>
	<path class="st3" d="M-101.5,262.6c4,0,7,0.8,9,2.3s3,3.8,3,6.8c0,2.3-0.6,4.1-1.7,5.6s-2.8,2.5-5,3.2l8.1,15.7h-3.5l-7.8-15.3
		h-8.3v15.3h-3.1v-33.6H-101.5z M-101.1,265.3h-6.7v13h7.6c2.4,0,4.2-0.6,5.5-1.7c1.3-1.1,1.9-2.7,1.9-4.8c0-2.2-0.7-3.8-2.1-4.9
		C-96.2,265.8-98.3,265.3-101.1,265.3z"/>
	<path class="st3" d="M-75.1,296.2v-30.9h-10v-2.7H-62v2.7h-10v30.9H-75.1z"/>
	<path class="st3" d="M-36.6,293.5v2.7h-20v-33.6h19.3v2.7h-16.2V277h11.7v2.7h-11.7v13.7H-36.6z"/>
	<path class="st3" d="M-21.2,262.6c4,0,7,0.8,9,2.3s3,3.8,3,6.8c0,2.3-0.6,4.1-1.7,5.6s-2.8,2.5-5,3.2l8.1,15.7h-3.5l-7.8-15.3h-8.3
		v15.3h-3.1v-33.6H-21.2z M-20.8,265.3h-6.7v13h7.6c2.4,0,4.2-0.6,5.5-1.7c1.3-1.1,1.9-2.7,1.9-4.8c0-2.2-0.7-3.8-2.1-4.9
		C-15.9,265.8-18,265.3-20.8,265.3z"/>
</g>
</svg>
