<svg xmlns="http://www.w3.org/2000/svg" xmlns:xlink="http://www.w3.org/1999/xlink" viewBox="0 0 176 176"><defs><style>.cls-1{fill:none;}.cls-2{fill:url(#linear-gradient);}.cls-3{fill:#fff;}</style><linearGradient id="linear-gradient" x1="7.55" y1="17.1" x2="143.13" y2="152.68" gradientUnits="userSpaceOnUse"><stop offset="0" stop-color="#212121" stop-opacity="0.2"/><stop offset="1" stop-color="#212121" stop-opacity="0"/></linearGradient></defs><title>Deposit 3</title><g id="Layer_2" data-name="Layer 2"><g id="Deposit3"><path class="cls-1" d="M1.76,52.51A4.36,4.36,0,0,1,0,49.29a3.53,3.53,0,0,1,.56-1.76c.17.29,7.52,4.68,11.88,5.11l-.08-.09C12.1,52.32,2,42.19,1.76,41.95A4.35,4.35,0,0,1,0,38.73c0-3.89,7.09-7,15.84-7,6.76,0,12.51,1.88,14.79,4.53a6.71,6.71,0,0,1,.71.71,6.71,6.71,0,0,1,.71.71,6.71,6.71,0,0,1,.71.71,6.71,6.71,0,0,1,.71.71,6.71,6.71,0,0,1,.71.71,6.71,6.71,0,0,1,.71.71l0,0A5.63,5.63,0,0,0,35,37.17c-.07,0-.1-.16,0-.19s-.05-.15-.08-.23c-.26-.14-5.51-5.45-5.39-5.51-.34-.19-.69-.37-1.06-.54a22.67,22.67,0,0,1,7.16-2.18l-.3-.3-.71-.71,0,0-.67-.67,0,0-.67-.67,0,0-.67-.67,0,0-.71-.71L31,24l0,0-.71-.71-.67-.67,0,0-.71-.71-.67-.67,0,0-1.38-1.38-1.41-1.41L24,16.92l-.71-.71-.71-.71-.71-.71-.71-.71-.71-.71-.71-.71L19,12l-.71-.71-.71-.71h7V0h7V.71l72.78,72.46a87.58,87.58,0,0,0,12.19-44.71A87.94,87.94,0,1,0,60,110.72C59.89,110.63,2,52.76,1.76,52.51Z" transform="translate(59.33 59.54)"/><path class="cls-2" d="M31.69.71V0h-7V10.56h-7l.71.71L19,12l.71.71.71.71.71.71.71.71.71.71.71.71.71.71,1.41,1.41,1.41,1.41,1.38,1.38,0,0,.67.67.71.71,0,0,.67.67L31,24l0,0,.67.67.71.71,0,0,.67.67,0,0,.67.67,0,0,.67.67,0,0,.71.71.3.3a22.67,22.67,0,0,0-7.16,2.18c.37.17.72.35,1.06.54-.12.06,5.13,5.37,5.39,5.51,0,.08.06.15.08.23s.06.14,0,.19a5.63,5.63,0,0,1-.07,3.33l0,0a6.71,6.71,0,0,0-.71-.71,6.71,6.71,0,0,0-.71-.71,6.71,6.71,0,0,0-.71-.71,6.71,6.71,0,0,0-.71-.71,6.71,6.71,0,0,0-.71-.71,6.71,6.71,0,0,0-.71-.71c-2.28-2.65-8-4.53-14.79-4.53C7.09,31.69,0,34.84,0,38.73a4.35,4.35,0,0,0,1.76,3.22c.21.24,10.34,10.37,10.6,10.6l.08.09A25.34,25.34,0,0,1,5,50.25a20.81,20.81,0,0,1-4.4-2.72A3.53,3.53,0,0,0,0,49.29a4.36,4.36,0,0,0,1.76,3.22C2,52.76,59.89,110.63,60,110.72a88.29,88.29,0,0,0,44.5-37.55Z" transform="translate(59.33 59.54)"/><ellipse class="cls-3" cx="75.18" cy="98.27" rx="15.84" ry="7.04"/><path class="cls-3" d="M15.84,52.81c-7.37,0-13.52-2.25-15.28-5.28A3.53,3.53,0,0,0,0,49.29c0,3.89,7.09,7,15.84,7s15.84-3.15,15.84-7a3.54,3.54,0,0,0-.56-1.76C29.36,50.56,23.22,52.81,15.84,52.81Z" transform="translate(59.33 59.54)"/><path class="cls-3" d="M40.49,49.29c-1.86,0-5.28-.14-5.28-.4v3.5c0,.26,3.42.43,5.28.43,8.75,0,15.84-3.15,15.84-7A3.54,3.54,0,0,0,55.77,44C54,47,47.86,49.29,40.49,49.29Z" transform="translate(59.33 59.54)"/><path class="cls-3" d="M40.49,42.25c8.75,0,15.84-3.15,15.84-7s-7.09-7-15.84-7A26.68,26.68,0,0,0,28.41,30.7c4.15,1.94,6.8,4.81,6.8,8a6.27,6.27,0,0,1-.79,3A33.67,33.67,0,0,0,40.49,42.25Z" transform="translate(59.33 59.54)"/><polygon class="cls-3" points="91.02 59.54 83.98 59.54 83.98 70.1 76.94 70.1 87.5 80.67 98.06 70.1 91.02 70.1 91.02 59.54"/></g></g></svg>