<?xml version="1.0" encoding="utf-8"?>
<!-- Generator: Adobe Illustrator 19.0.0, SVG Export Plug-In . SVG Version: 6.00 Build 0)  -->
<svg version="1.1" xmlns="http://www.w3.org/2000/svg" xmlns:xlink="http://www.w3.org/1999/xlink" x="0px" y="0px"
	 viewBox="38.7 250.9 86.2 48.4" style="enable-background:new 38.7 250.9 86.2 48.4;" xml:space="preserve">
<style type="text/css">
	.st0{display:none;}
	.st1{display:inline;fill:#F5872E;}
	.st2{display:inline;fill:#F58634;}
	.st3{fill:#F5872E;}
</style>
<g id="Layer_1" class="st0">
	<path class="st1" d="M-253.4,289c-0.1-0.6-0.1-1.2,0.1-1.9c0.1-0.4,0.4-0.8,0.7-1.2c0-0.1,0.1-0.1,0.1-0.1l0.1-0.1l0,0l0.1-0.1
		l0.3-0.2l0.6-0.4c0.4-0.3,0.9-0.6,1.4-0.9c1-0.6,2-1.2,3.2-1.4c0.5-0.1,1.2-0.4,1.7-0.4c1-0.1,2-0.1,3-0.1h0.9
		c-1.3-1.4-2.5-2.7-3.7-4.1c-2.4-3-4.2-6.3-5.5-9.8c-0.7-1.7-1.2-3.6-1.7-5.3c-0.4-1.8-0.8-3.6-1-5.4c0-0.2,0.1-0.3,0.3-0.3
		c0.1,0,0.2,0.1,0.3,0.1c0.4,1.8,1,3.5,1.7,5.3c0.6,1.7,1.3,3.4,2.2,4.9c0.8,1.7,1.7,3.2,2.7,4.6c1,1.4,2.2,2.7,3.4,4
		c1.2,1.4,2.5,2.6,3.9,3.7l1,0.9c0.4,0.3,0.8,0.7,1.1,1l0.4,0.4c0.2,0.3,0.3,0.5,0.4,0.8c0.1,0.4,0.1,0.7,0.1,1.1
		c-0.1,0.4-0.2,0.8-0.5,1.1c-0.2,0.2-0.4,0.4-0.6,0.5l-0.4,0.2c-0.2,0.1-0.4,0.1-0.6,0.2l-0.5,0.1c-0.3,0-0.5,0.1-0.8,0.1
		c-0.5,0-1,0.1-1.4,0.1c-0.4,0-0.8,0.1-1.2,0.1c-0.8,0.1-1.5,0.3-2.4,0.5c-0.3,0.1-0.6,0.1-1,0.4l-0.2,0.1c1.4,0.4,2.9,0.8,4.3,1.2
		c3.6,1,7.1,2.2,10.6,3.7c3.5,1.4,6.8,3.2,10.2,5.1c1.3,0.7,2.8,1.8,4.4,3c1.4,1.2,2.7,2.5,4,4c0.1,0.1,0.1,0.3,0,0.4
		c-0.1,0.1-0.2,0.1-0.3,0c-3.1-1.9-6.3-3.5-9.8-4.8c-3.3-1.3-6.8-2.4-10.2-3.4s-7-1.8-10.5-2.7c-1.7-0.4-3.6-0.9-5.4-1.4
		c-0.4-0.1-0.9-0.4-1.4-0.4c-0.5-0.2-1.2-0.4-1.7-0.6c-0.2-0.1-0.3-0.1-0.5-0.3c-0.3-0.1-0.5-0.3-0.7-0.5c-0.2-0.2-0.4-0.4-0.5-0.6
		C-253.1,289.8-253.3,289.4-253.4,289z"/>
	<path class="st1" d="M-297.3,304.8c0,0.1,0.2,0.2,0.4,0.2l0,0h0.1c3.1-1.8,6.3-3.5,9.8-4.7c3.4-1.4,6.8-2.4,10.2-3.5
		c3.5-1,6.9-1.9,10.5-2.7c1.7-0.4,3.6-0.9,5.4-1.4c0.4-0.1,0.9-0.3,1.4-0.4c0.5-0.1,1.2-0.4,1.7-0.6c0.1-0.1,0.3-0.2,0.5-0.3
		c0.3-0.1,0.5-0.4,0.7-0.5c0.1-0.2,0.4-0.4,0.5-0.6c0.3-0.4,0.5-0.8,0.6-1.2c0.1-0.6,0.1-1.2-0.1-1.9c-0.1-0.1-0.2-0.5-0.3-0.6
		c-0.1-0.1-0.2-0.3-0.4-0.4l-0.3-0.3l0,0l-0.1-0.1l-0.4-0.2l-0.6-0.4c-0.4-0.3-0.9-0.6-1.4-0.9c-1-0.6-2-1.1-3.2-1.4
		c-0.5-0.1-1.1-0.4-1.7-0.4c-1-0.2-2-0.2-3-0.2h-1c1.3-1.3,2.5-2.6,3.7-4c2.2-3.1,4-6.3,5.4-9.9c0.7-1.7,1.2-3.5,1.7-5.3
		c0.4-1.8,0.8-3.5,1-5.4c0-0.2-0.1-0.3-0.4-0.3c-0.1,0-0.1,0.1-0.3,0.2c-0.4,1.7-1,3.5-1.6,5.2c-0.6,1.7-1.4,3.4-2.2,4.9
		c-1.7,3.2-3.7,6.1-6.1,8.7c-1.2,1.3-2.6,2.5-3.9,3.7l-1,0.9c-0.4,0.3-0.9,0.7-1.2,1l-0.3,0.4c-0.2,0.4-0.3,0.6-0.4,0.9
		c-0.1,0.3-0.1,0.7-0.1,1c0.1,0.4,0.2,0.8,0.5,1.2c0.2,0.1,0.3,0.3,0.5,0.4l0.5,0.1c0.2,0.1,0.4,0.1,0.6,0.1l0.6,0.1
		c0.3,0,0.5,0.1,0.8,0.1c0.5,0,1,0.1,1.4,0.1c0.4,0,0.8,0.1,1.2,0.1c0.8,0.1,1.5,0.2,2.3,0.5c0.4,0.1,0.7,0.2,1.1,0.4l0.1,0.1
		c-1.4,0.4-2.8,0.9-4.2,1.2c-3.6,1-7.1,2.3-10.7,3.7c-3.5,1.4-6.8,3.2-10.1,5.1c-1.7,1-3.2,2.2-4.6,3.3c-1.4,1.1-2.7,2.4-3.9,3.7
		C-297.3,304.6-297.3,304.7-297.3,304.8L-297.3,304.8z"/>
	<path class="st1" d="M-207.7,267.1h4.1c2.7,0,4.9,0.6,6.6,1.8c1.7,1.2,2.6,2.7,2.6,4.5c0,2.2-1.2,4.1-3.7,5.5
		c3.9,1.3,5.8,3.6,5.8,6.8c0,2.2-1,4-3,5.5c-2,1.4-4.8,2-8.1,2h-4.2V267.1z M-204.2,270.3v7.8c1.9-0.1,3.5-0.4,4.5-1.2
		c1-0.7,1.5-1.7,1.5-3c0-1.1-0.4-1.9-1.4-2.7c-0.9-0.6-2.2-0.9-3.8-0.9C-203.6,270.3-203.9,270.3-204.2,270.3z M-204.2,281.2v8.9
		h0.3c3,0,5.1-0.5,6.2-1.5c1.2-0.9,1.7-1.9,1.7-3c0-1.4-0.6-2.4-1.8-3.2c-1.3-0.9-3-1.2-5.1-1.2H-204.2z M-188.9,267.1h16v3.6h-6.3
		v22.5h-3.5v-22.5h-6.2V267.1z M-149.1,268.1v4c-2.8-1.4-5.4-2.1-7.8-2.1c-3,0-5.5,1-7.6,3c-2.1,1.9-3.2,4.3-3.2,7.2
		s1.1,5.3,3.2,7.3c2.1,1.9,4.8,2.9,8,2.9c2.3,0,4.8-0.7,7.3-2.2v4.1c-2.4,1.2-4.9,1.9-7.7,1.9c-4,0-7.5-1.4-10.4-4.1
		c-2.9-2.7-4.3-6-4.3-9.9c0-3.7,1.4-7,4.2-9.7c2.8-2.7,6.3-4,10.2-4C-154.5,266.4-151.8,266.9-149.1,268.1z M-111.7,266.1l7.1,27.2
		h-3.5l-4.4-16.6l-7.4,17.6l-7.4-17.7l-4.4,16.7h-3.5l7.1-27.2l8.1,19.5L-111.7,266.1z M-101.9,280c0-3.7,1.4-7,4.2-9.6
		c2.8-2.7,6.3-4,10.2-4c3.9,0,7.3,1.4,10.1,4c2.8,2.7,4.2,6,4.2,9.6c0,4-1.4,7.3-4.2,10c-2.8,2.7-6.2,4.1-10.2,4.1
		s-7.4-1.4-10.2-4.1C-100.5,287.3-101.9,283.9-101.9,280z M-76.9,280.2c0-2.9-1-5.3-3.1-7.3c-2.1-1.9-4.6-3-7.7-3
		c-2.9,0-5.3,1-7.4,3c-2,2-3,4.4-3,7.2c0,2.9,1,5.3,3.2,7.3c2.1,1.9,4.7,3,7.7,3c2.9,0,5.3-1,7.3-3
		C-77.9,285.4-76.9,283.1-76.9,280.2z M-68.6,266.1l19.3,19.8v-18.8h3.6v27.4l-19.4-19.7v18.5h-3.5V266.1z M-40.4,267.1h3.5v10.7
		l11.1-10.7h5l-12.6,12.2l12.7,14h-4.5l-11.6-12.7v12.7h-3.5V267.1z"/>
	<path class="st2" d="M-3.6,323.3h-310.2v-85.5H-3.6V323.3z M-309.7,319.3H-7.6v-77.5h-302.2V319.3z"/>
</g>
<g id="Layer_2">
	<g>
		<path class="st3" d="M83,283c-0.1-0.6-0.1-1.2,0.1-1.9c0.1-0.4,0.4-0.8,0.7-1.2c0-0.1,0.1-0.1,0.1-0.1l0.1-0.1l0,0l0.1-0.1
			l0.3-0.2L85,279c0.4-0.3,0.9-0.6,1.4-0.9c1-0.6,2-1.2,3.2-1.4c0.5-0.1,1.2-0.4,1.7-0.4c1-0.1,2-0.1,3-0.1h0.9
			c-1.3-1.4-2.5-2.7-3.7-4.1c-2.4-3-4.2-6.3-5.5-9.8c-0.7-1.7-1.2-3.6-1.7-5.3c-0.4-1.8-0.8-3.6-1-5.4c0-0.2,0.1-0.3,0.3-0.3
			c0.1,0,0.2,0.1,0.3,0.1c0.4,1.8,1,3.5,1.7,5.3c0.6,1.7,1.3,3.4,2.2,4.9c0.8,1.7,1.7,3.2,2.7,4.6c1,1.4,2.2,2.7,3.4,4
			c1.2,1.4,2.5,2.6,3.9,3.7l1,0.9c0.4,0.3,0.8,0.7,1.1,1l0.4,0.4c0.2,0.3,0.3,0.5,0.4,0.8c0.1,0.4,0.1,0.7,0.1,1.1
			c-0.1,0.4-0.2,0.8-0.5,1.1c-0.2,0.2-0.4,0.4-0.6,0.5l-0.4,0.2c-0.2,0.1-0.4,0.1-0.6,0.2l-0.5,0.1c-0.3,0-0.5,0.1-0.8,0.1
			c-0.5,0-1,0.1-1.4,0.1c-0.4,0-0.8,0.1-1.2,0.1c-0.8,0.1-1.5,0.3-2.4,0.5c-0.3,0.1-0.6,0.1-1,0.4l-0.2,0.1c1.4,0.4,2.9,0.8,4.3,1.2
			c3.6,1,7.1,2.2,10.6,3.7c3.5,1.4,6.8,3.2,10.2,5.1c1.3,0.7,2.8,1.8,4.4,3c1.4,1.2,2.7,2.5,4,4c0.1,0.1,0.1,0.3,0,0.4
			c-0.1,0.1-0.2,0.1-0.3,0c-3.1-1.9-6.3-3.5-9.8-4.8c-3.3-1.3-6.8-2.4-10.2-3.4c-3.5-1-7-1.8-10.5-2.7c-1.7-0.4-3.6-0.9-5.4-1.4
			c-0.4-0.1-0.9-0.4-1.4-0.4c-0.5-0.2-1.2-0.4-1.7-0.6c-0.2-0.1-0.3-0.1-0.5-0.3c-0.3-0.1-0.5-0.3-0.7-0.5c-0.2-0.2-0.4-0.4-0.5-0.6
			C83.3,283.8,83,283.4,83,283z"/>
		<path class="st3" d="M39,298.8c0,0.1,0.2,0.2,0.4,0.2l0,0h0.1c3.1-1.8,6.3-3.5,9.8-4.7c3.4-1.4,6.8-2.4,10.2-3.5
			c3.5-1,6.9-1.9,10.5-2.7c1.7-0.4,3.6-0.9,5.4-1.4c0.4-0.1,0.9-0.3,1.4-0.4s1.2-0.4,1.7-0.6c0.1-0.1,0.3-0.2,0.5-0.3
			c0.3-0.1,0.5-0.4,0.7-0.5c0.1-0.2,0.4-0.4,0.5-0.6c0.3-0.4,0.5-0.8,0.6-1.2c0.1-0.6,0.1-1.2-0.1-1.9c-0.1-0.1-0.2-0.5-0.3-0.6
			c-0.1-0.1-0.2-0.3-0.4-0.4l-0.3-0.3l0,0l-0.1-0.1l-0.4-0.2l-0.6-0.4c-0.4-0.3-0.9-0.6-1.4-0.9c-1-0.6-2-1.1-3.2-1.4
			c-0.5-0.1-1.1-0.4-1.7-0.4c-1-0.2-2-0.2-3-0.2h-1c1.3-1.3,2.5-2.6,3.7-4c2.2-3.1,4-6.3,5.4-9.9c0.7-1.7,1.2-3.5,1.7-5.3
			c0.4-1.8,0.8-3.5,1-5.4c0-0.2-0.1-0.3-0.4-0.3c-0.1,0-0.1,0.1-0.3,0.2c-0.4,1.7-1,3.5-1.6,5.2c-0.6,1.7-1.4,3.4-2.2,4.9
			c-1.7,3.2-3.7,6.1-6.1,8.7c-1.2,1.3-2.6,2.5-3.9,3.7l-1,0.9c-0.4,0.3-0.9,0.7-1.2,1l-0.3,0.4c-0.2,0.4-0.3,0.6-0.4,0.9
			c-0.1,0.3-0.1,0.7-0.1,1c0.1,0.4,0.2,0.8,0.5,1.2c0.2,0.1,0.3,0.3,0.5,0.4l0.5,0.1c0.2,0.1,0.4,0.1,0.6,0.1l0.6,0.1
			c0.3,0,0.5,0.1,0.8,0.1c0.5,0,1,0.1,1.4,0.1c0.4,0,0.8,0.1,1.2,0.1c0.8,0.1,1.5,0.2,2.3,0.5c0.4,0.1,0.7,0.2,1.1,0.4l0.1,0.1
			c-1.4,0.4-2.8,0.9-4.2,1.2c-3.6,1-7.1,2.3-10.7,3.7c-3.5,1.4-6.8,3.2-10.1,5.1c-1.7,1-3.2,2.2-4.6,3.3c-1.4,1.1-2.7,2.4-3.9,3.7
			C39,298.6,39,298.7,39,298.8L39,298.8z"/>
	</g>
</g>
</svg>
