<?xml version="1.0" encoding="utf-8"?>
<!-- Generator: Adobe Illustrator 20.0.0, SVG Export Plug-In . SVG Version: 6.00 Build 0)  -->
<svg version="1.1" id="Layer_1" xmlns="http://www.w3.org/2000/svg" xmlns:xlink="http://www.w3.org/1999/xlink" x="0px" y="0px"
	 viewBox="0 0 215 49.5" style="enable-background:new 0 0 215 49.5;" xml:space="preserve">
<style type="text/css">
	.st0{display:none;fill:#F58634;}
	.st1{opacity:0.5;}
	.st2{opacity:0.4;fill:none;stroke:#000000;stroke-miterlimit:10;enable-background:new    ;}
	.st3{opacity:0.58;fill:none;stroke:#008CAD;stroke-miterlimit:10;enable-background:new    ;}
	.st4{opacity:0.4;fill:none;stroke:#03A9F4;stroke-miterlimit:10;enable-background:new    ;}
	.st5{fill:#00B2E2;}
	.st6{fill:#FF5722;}
</style>
<g id="Layer_1_1_">
	<path class="st0" d="M-1651.9,1595.3h-310.2v-85.5h310.2L-1651.9,1595.3L-1651.9,1595.3z M-1958,1591.3h302.1v-77.5h-302.2
		L-1958,1591.3L-1958,1591.3z"/>
</g>
<g class="st1">
	<path d="M24.3,41.6c0,0.8-0.3,1.5-0.8,2s-1.2,0.8-2,0.8H8.4V5c0-0.2,0.1-0.3,0.3-0.3h12.7c0.8,0,1.5,0.3,2,0.8s0.8,1.2,0.8,2v11.8
		c0,1-0.5,1.9-1.4,2.6c-0.9,0.6-1.9,1.1-2.8,1.7l3,1.9c0.9,0.5,1.3,1.4,1.3,2.5V41.6z M20.7,19.8v-12h-8.7v14.3h5.2L20.7,19.8z
		 M20.8,41.3V27.6l-3.6-2.3h-5.3v16.1h8.9V41.3z"/>
	<path d="M42.8,44.5h-12c-0.2,0-0.3-0.1-0.3-0.3V5.1c0-0.2,0.1-0.3,0.3-0.3h2.9c0.2,0,0.3,0.1,0.3,0.3v36c0,0.2,0.1,0.3,0.3,0.3h8.5
		c0.2,0,0.3,0.1,0.3,0.3v2.5C43.3,44.3,43.1,44.5,42.8,44.5z"/>
	<path d="M64.8,41.6c0,0.8-0.3,1.5-0.8,2s-1.2,0.8-2,0.8H50.9c-0.8,0-1.5-0.3-2-0.8s-0.8-1.2-0.8-2V7.5c0-0.8,0.3-1.5,0.8-2
		s1.2-0.8,2-0.8h11.1c0.8,0,1.5,0.3,2,0.8s0.8,1.2,0.8,2V41.6z M61.3,41.3V7.8h-9.7v33.5H61.3z"/>
	<path d="M87.1,41.6c0,0.8-0.3,1.5-0.8,2s-1.2,0.8-2.1,0.8H73.9c-0.8,0-1.5-0.3-2-0.8s-0.8-1.2-0.8-2V7.5c0-0.8,0.3-1.5,0.8-2
		s1.2-0.8,2-0.8h10.2c0.8,0,1.5,0.3,2.1,0.8c0.5,0.5,0.8,1.2,0.8,2v8.4c0,0.5-0.4,0.9-0.9,0.9h-2.4c-0.2,0-0.3-0.2-0.3-0.3V8.2
		c0-0.2-0.2-0.3-0.3-0.3H75c-0.2,0-0.3,0.2-0.3,0.3V41c0,0.2,0.2,0.3,0.3,0.3h8.2c0.2,0,0.3-0.2,0.3-0.3v-9.1c0-0.2,0.2-0.3,0.3-0.3
		h2.7c0.3,0,0.5,0.2,0.5,0.5L87.1,41.6L87.1,41.6z"/>
</g>
<rect x="4.9" y="28.2" class="st2" width="9.3" height="10.5"/>
<rect x="4.9" y="21" class="st3" width="9.3" height="7.2"/>
<rect x="4.9" y="10.5" class="st4" width="9.3" height="10.5"/>
<g>
	<path class="st5" d="M24.1,42c0,0.8-0.3,1.5-0.8,2s-1.2,0.8-2,0.8H8.2V5.1h13c0.8,0,1.5,0.3,2,0.8s0.8,1.2,0.8,2v11.8
		c0,1-0.5,1.9-1.4,2.6c-0.9,0.6-1.9,1.1-2.8,1.7l3,1.9c0.9,0.5,1.3,1.4,1.3,2.5V42z M20.3,20.1v-12h-8.7v14.4h5.2L20.3,20.1z
		 M20.4,41.7V28l-3.6-2.3h-5.3v16.1h8.9V41.7z"/>
	<path class="st5" d="M42.8,44.8H30.1V5.1h3.5v36.6h9.2V44.8z"/>
	<path class="st5" d="M64.4,42c0,0.8-0.3,1.5-0.8,2s-1.2,0.8-2,0.8H50.6c-0.8,0-1.5-0.3-2-0.8s-0.8-1.2-0.8-2V7.9
		c0-0.8,0.3-1.5,0.8-2s1.2-0.8,2-0.8h11.1c0.8,0,1.5,0.3,2,0.8s0.8,1.2,0.8,2V42L64.4,42z M60.9,41.7V8.2h-9.7v33.5H60.9z"/>
	<path class="st5" d="M86.8,42c0,0.8-0.3,1.5-0.8,2s-1.2,0.8-2.1,0.8H73.7c-0.8,0-1.5-0.3-2-0.8s-0.8-1.2-0.8-2V7.9
		c0-0.8,0.3-1.5,0.8-2s1.2-0.8,2-0.8h10.2c0.8,0,1.5,0.3,2.1,0.8c0.5,0.5,0.8,1.2,0.8,2v9.2h-3.6V8.2h-8.8v33.5h8.8v-9.8h3.6V42z"/>
</g>
<g class="st1">
	<path d="M114.4,44.7l-19.9-20v20h-1.6v-39h1.6v15.5L110,5.7h2.3L95,23l21.7,21.6L114.4,44.7z"/>
	<path d="M131,5.9c1.5,0,2.8,0.3,4.2,0.8c1.3,0.6,2.5,1.3,3.4,2.3c1,1,1.7,2.1,2.3,3.4s0.8,2.7,0.8,4.2c0,1.4-0.2,2.7-0.7,3.9
		c-0.5,1.2-1.1,2.3-2,3.2c-0.9,0.9-1.8,1.7-3,2.3c-1.1,0.6-2.3,1-3.7,1.2l11.9,17.4l-1.9,0.1l-11.9-17.4h-5.3v17.4h-1.6V7.5h-1.1
		V5.9L131,5.9L131,5.9z M125.3,25.7h5.8c1.3,0,2.4-0.2,3.5-0.7s2.1-1.1,2.9-2c0.8-0.8,1.5-1.8,2-2.9s0.7-2.3,0.7-3.5
		c0-1.3-0.2-2.4-0.7-3.5s-1.1-2.1-2-2.9c-0.8-0.8-1.8-1.5-2.9-2c-1.1-0.5-2.3-0.7-3.5-0.7h-5.8V25.7z"/>
	<path d="M152.1,7.5L152,5.8h8v1.7h-3.4v35.6h4.8v1.7h-11.3v-1.7h4.9V7.5H152.1z"/>
	<path d="M179.7,44.7V7.5h-12.5V5.9h26.2v1.6h-12.1v37.2H179.7z"/>
	<path d="M201,7.5l-0.1-1.7h8v1.7h-3.4v35.6h4.8v1.7H199v-1.7h4.9V7.5H201z"/>
</g>
<g>
	<path class="st6" d="M114.2,44.5l-19.9-20v20h-1.6v-39h1.6V21l15.5-15.5h2.3L94.8,22.8l21.7,21.6L114.2,44.5z"/>
	<path class="st6" d="M130.8,5.7c1.5,0,2.8,0.3,4.2,0.8c1.3,0.6,2.5,1.3,3.4,2.3c1,1,1.7,2.1,2.3,3.4s0.8,2.7,0.8,4.2
		c0,1.4-0.2,2.7-0.7,3.9c-0.5,1.2-1.1,2.3-2,3.2c-0.9,0.9-1.8,1.7-3,2.3c-1.1,0.6-2.3,1-3.7,1.2l11.9,17.4l-1.9,0.1l-11.9-17.4h-5.3
		v17.4h-1.6V7.3h-1.1V5.7L130.8,5.7L130.8,5.7z M125.1,25.5h5.8c1.3,0,2.4-0.2,3.5-0.7s2.1-1.1,2.9-2c0.8-0.8,1.5-1.8,2-2.9
		s0.7-2.3,0.7-3.5c0-1.3-0.2-2.4-0.7-3.5s-1.1-2.1-2-2.9c-0.8-0.8-1.8-1.5-2.9-2c-1.1-0.5-2.3-0.7-3.5-0.7h-5.8V25.5z"/>
	<path class="st6" d="M151.9,7.3l-0.1-1.7h8v1.7h-3.4v35.6h4.8v1.7h-11.3v-1.7h4.9V7.3H151.9z"/>
	<path class="st6" d="M179.4,44.5V7.3h-12.5V5.7h26.2v1.6h-12.1v37.2H179.4z"/>
	<path class="st6" d="M200.8,7.3l-0.1-1.7h8v1.7h-3.4v35.6h4.8v1.7h-11.3v-1.7h4.9V7.3H200.8z"/>
</g>
</svg>
