<svg xmlns="http://www.w3.org/2000/svg" xmlns:xlink="http://www.w3.org/1999/xlink" viewBox="0 0 176 176"><defs><style>.cls-1{fill:none;}.cls-2{fill:url(#linear-gradient);}.cls-3{fill:#fff;}</style><linearGradient id="linear-gradient" x1="8.5" y1="19.9" x2="142.53" y2="153.93" gradientUnits="userSpaceOnUse"><stop offset="0" stop-color="#212121" stop-opacity="0.2"/><stop offset="1" stop-color="#212121" stop-opacity="0"/></linearGradient></defs><title>Withdrawal</title><g id="Layer_2" data-name="Layer 2"><g id="withdrwal"><path class="cls-1" d="M1.77,52.94A4.39,4.39,0,0,1,0,49.7a3.56,3.56,0,0,1,.56-1.78,5.29,5.29,0,0,0,.63.84s.41.37.62.61l.09.08s.24.13.33.26l.44.33h0a22,22,0,0,0,9.83,3C12.46,53,2,42.53,1.77,42.29A4.39,4.39,0,0,1,0,39c0-3.92,7.15-7.1,16-7.1,6.81,0,12.61,1.9,14.91,4.56.26.23,4.3,4.29,4.33,4.32a5.68,5.68,0,0,0,.06-3.39c.07-.08,0-.17-.07-.23L35.14,37c-.28-.14-5.55-5.47-5.43-5.53-.34-.19-.69-.37-1.06-.54a20.36,20.36,0,0,1,4.68-1.7l-7.76-8h-.71V17.71h0l0,0V17l-5.69-6.35H17.75L28.4,0l2.12,2.12.71.71,3.53,3.53L39,10.59l64.59,64.59a87.58,87.58,0,0,0,13.26-46.47A87.94,87.94,0,1,0,59.9,111.07C59.82,111,2,53.19,1.77,52.94Z" transform="translate(59.15 59.29)"/><path class="cls-2" d="M39,10.59,34.75,6.35,31.22,2.82l-.71-.71L28.4,0,17.75,10.65h1.41L24.85,17v.66l0,0h0V21.3h.71l7.76,8A20.36,20.36,0,0,0,28.64,31c.37.17.72.35,1.06.54-.12.06,5.16,5.39,5.43,5.53l.07.19a.21.21,0,0,1,.07.23,5.68,5.68,0,0,1-.06,3.39s-4.06-4.09-4.33-4.32c-2.3-2.67-8.1-4.56-14.91-4.56-8.82,0-16,3.18-16,7.1a4.39,4.39,0,0,0,1.77,3.24C2,42.53,12.46,53,12.52,53.08a22,22,0,0,1-9.83-3h0l-.44-.33a.83.83,0,0,1-.33-.26l-.09-.08a6.25,6.25,0,0,1-.62-.61,5.29,5.29,0,0,1-.63-.84A3.56,3.56,0,0,0,0,49.7a4.39,4.39,0,0,0,1.77,3.24c.21.24,58,58,58.13,58.13a88.28,88.28,0,0,0,43.68-35.89Z" transform="translate(59.15 59.29)"/><ellipse class="cls-3" cx="75.13" cy="98.34" rx="15.97" ry="7.1"/><path class="cls-3" d="M16,53.25C8.54,53.25,2.35,51,.56,47.92A3.55,3.55,0,0,0,0,49.7c0,3.92,7.15,7.1,16,7.1s16-3.18,16-7.1a3.57,3.57,0,0,0-.56-1.77C29.6,51,23.41,53.25,16,53.25Z" transform="translate(59.15 59.29)"/><path class="cls-3" d="M40.82,49.7c-1.87,0-5.32-.15-5.32-.41v3.53c0,.26,3.45.43,5.32.43,8.82,0,16-3.18,16-7.1a3.57,3.57,0,0,0-.56-1.77C54.45,47.43,48.26,49.7,40.82,49.7Z" transform="translate(59.15 59.29)"/><path class="cls-3" d="M40.82,42.6c8.82,0,16-3.18,16-7.1s-7.15-7.1-16-7.1A26.9,26.9,0,0,0,28.64,31c4.19,2,6.86,4.85,6.86,8.09a6.32,6.32,0,0,1-.8,3A34,34,0,0,0,40.82,42.6Z" transform="translate(59.15 59.29)"/><polygon class="cls-3" points="84 80.59 91.1 80.59 91.1 69.94 98.2 69.94 87.55 59.29 76.9 69.94 84 69.94 84 80.59"/></g></g></svg>