<svg xmlns="http://www.w3.org/2000/svg" viewBox="0 0 56.8 55.86"><defs><style>.cls-1{fill:none;}.cls-2{fill:#fff;}</style></defs><title>Deposit 2</title><g id="Layer_2" data-name="Layer 2"><g id="Deposit2"><path class="cls-1" d="M31.17,46.05l-3.42-1-.11,0c-.91-.23-1.87-.57-1.87-1.58s1.68-1.39,2.59-1.39c2.65,0,2.8,1.4,2.89,2.28a.32.32,0,0,0,.32.29h3.09a.32.32,0,0,0,.32-.32v-.09c0-3.18-1.45-5.09-4.39-5.73V37.22a.32.32,0,0,0-.32-.32H27.14a.32.32,0,0,0-.32.32v1.17c-3.67.49-5,2.91-5,5.19,0,4.27,3.13,5.1,5.44,5.71l2,.52c1.71.46,2.54.73,2.53,1.8a1.25,1.25,0,0,1-.07.41h4c0-.14,0-.27,0-.41A5.82,5.82,0,0,0,31.17,46.05Z"/><path class="cls-1" d="M25.33,50.76H22a.32.32,0,0,0-.32.32,6.84,6.84,0,0,0,.06.94h4.06a1.88,1.88,0,0,1-.2-.95A.32.32,0,0,0,25.33,50.76Z"/><path class="cls-2" d="M54.88,39.66A1.92,1.92,0,0,0,53,41.58V52H46.05a18.16,18.16,0,1,0-35.18,0h-7V41.58a1.92,1.92,0,0,0-3.84,0V53.95a1.92,1.92,0,0,0,1.92,1.92h53a1.92,1.92,0,0,0,1.92-1.92V41.58A1.92,1.92,0,0,0,54.88,39.66ZM21.79,52a6.72,6.72,0,0,1-.06-.94.32.32,0,0,1,.32-.32h3.28a.32.32,0,0,1,.32.32,1.87,1.87,0,0,0,.2.95H21.79Zm9.88,0a1.25,1.25,0,0,0,.07-.41c0-1.07-.82-1.34-2.53-1.8l-2-.52c-2.31-.61-5.47-1.44-5.44-5.71,0-2.28,1.36-4.7,5-5.19V37.22a.32.32,0,0,1,.32-.32h3.13a.32.32,0,0,1,.32.32v1.31c2.94.63,4.42,2.55,4.39,5.73v.09a.32.32,0,0,1-.32.32H31.58a.32.32,0,0,1-.32-.29c-.09-.88-.24-2.27-2.89-2.28-.92,0-2.59.29-2.59,1.39s1,1.35,1.87,1.58l.11,0,3.42,1a5.82,5.82,0,0,1,4.52,5.57c0,.14,0,.27,0,.41Z"/><path class="cls-2" d="M36.42,14.89a1.92,1.92,0,0,0-2.71.17l-3.33,3.78V1.92a1.92,1.92,0,1,0-3.84,0v17l-3.46-3.86a1.92,1.92,0,1,0-2.86,2.56L27,25.21l.08.07.08.09.09.06.12.09.21.12.12.06.25.08.1,0a2,2,0,0,0,.37,0h0a1.87,1.87,0,0,0,.37,0l.12,0,.19-.05,0,0a1.88,1.88,0,0,0,.45-.25l.09-.08a1.89,1.89,0,0,0,.19-.17l6.69-7.59A1.92,1.92,0,0,0,36.42,14.89Z"/></g></g></svg>