<svg xmlns="http://www.w3.org/2000/svg" viewBox="0 0 58.8 53.57"><defs><style>.cls-1{fill:#fff;}</style></defs><title>Deposit 5</title><g id="Layer_2" data-name="Layer 2"><g id="Deposit5"><path class="cls-1" d="M11.76,0A5.24,5.24,0,0,0,6.53,5.23v28.2A10.46,10.46,0,1,0,20.15,47H54.23a4.59,4.59,0,0,0,4.57-4.57V12.41a4.59,4.59,0,0,0-4.57-4.57H51V1.31A1.36,1.36,0,0,0,49.65,0H11.76Zm0,2.61H48.35V7.84H11.76A2.58,2.58,0,0,1,9.15,5.23,2.58,2.58,0,0,1,11.76,2.61ZM9.15,9.74a5.18,5.18,0,0,0,2.61.71c14.72,0,29.82,0,42.47,0a1.93,1.93,0,0,1,2,2v6.53H38.55a3.29,3.29,0,0,0-3.27,3.27V32.67a3.29,3.29,0,0,0,3.27,3.27H56.19v6.53a1.93,1.93,0,0,1-2,2H20.8a10.35,10.35,0,0,0,.1-1.31A10.47,10.47,0,0,0,10.45,32.67a10.36,10.36,0,0,0-1.31.1v-23Zm29.4,11.82H56.19V33.32H38.55a.63.63,0,0,1-.65-.65V22.21A.63.63,0,0,1,38.55,21.56Zm5.23,2.59A3.27,3.27,0,1,0,47,27.42,3.29,3.29,0,0,0,43.77,24.15Zm0,2.61a.65.65,0,1,1-.65.65A.63.63,0,0,1,43.77,26.77ZM10.45,35.28a7.84,7.84,0,1,1-7.84,7.84,7.82,7.82,0,0,1,7.84-7.84Zm0,2a1.31,1.31,0,0,0-1.31,1.31v3.27H5.88a1.31,1.31,0,0,0,0,2.61H9.15v3.27a1.31,1.31,0,1,0,2.61,0V44.43H15a1.31,1.31,0,1,0,0-2.61H11.76V38.55a1.31,1.31,0,0,0-1.31-1.31Z"/></g></g></svg>