<svg xmlns="http://www.w3.org/2000/svg" viewBox="0 0 45.27 56.15"><defs><style>.cls-1{fill:#fff;}</style></defs><title>Deposit</title><g id="Layer_2" data-name="Layer 2"><g id="Deposit"><path class="cls-1" d="M26.71,34.33H24l.31.83,0,.06h1.94a.91.91,0,0,1,.91,1v6.18L28,42V35.74A1.74,1.74,0,0,0,26.71,34.33Zm-.33,16H24.15a3.56,3.56,0,1,1,0-7.12h2.23l.1-.05V37.12a1.1,1.1,0,0,0-1.11-1H14.57a2.6,2.6,0,0,1-.07,1.32l-.56,1.75a2.62,2.62,0,0,1-3.3,1.7l-1.76-.56a2.62,2.62,0,0,1-1.35-4l-.08-.21H2.77l-.22,0H2a.45.45,0,0,1-.13-.87H7.42l-.31-.89H2.79C.64,34.32,0,34.34,0,37v18.1a1.12,1.12,0,0,0,1.11,1H25.38a1.11,1.11,0,0,0,1.11-1V50.3ZM14.44,35.67h9.18L22.27,32,14,35A2.55,2.55,0,0,1,14.44,35.67Zm3-29.2A3.77,3.77,0,0,1,15.66,6l-.32,1.25a4.48,4.48,0,0,0,1.82.46v1h1.06V7.62a2,2,0,0,0,1.89-2c0-1-.5-1.56-1.77-2C17.41,3.31,17,3.08,17,2.73s.22-.61.92-.61a3.32,3.32,0,0,1,1.54.37l.32-1.21A3.85,3.85,0,0,0,18.26.94V0h-1V1a2,2,0,0,0-1.8,1.9c0,1,.78,1.57,1.92,2,.8.27,1.14.52,1.14.93S18.05,6.46,17.43,6.46ZM9.52,36.84a1,1,0,0,0-.14,1.94l1.75.56a1,1,0,0,0,1.26-.65L13,36.94a1,1,0,0,0-1.65-1A13.65,13.65,0,0,1,18.8,17.24a1,1,0,0,0-.71-1.88A15.66,15.66,0,0,0,9.52,36.84ZM28.66,14.28c-2.33-.84-3.28-1.44-3.28-2.3s.57-1.54,2.33-1.54a8.42,8.42,0,0,1,3.9.95l.81-3.06a9.8,9.8,0,0,0-4-.89V5H25.81V7.61c-2.9.54-4.58,2.41-4.58,4.82,0,2.63,2,4,4.88,5,2,.68,2.9,1.33,2.9,2.36S28,21.43,26.38,21.43a9.57,9.57,0,0,1-4.5-1.19l-.81,3.17a11.33,11.33,0,0,0,4.61,1.17v2.57h2.68V24.36c3.12-.51,4.8-2.57,4.8-5S31.88,15.42,28.66,14.28ZM42,9.09c-1.67-.61-2.36-1-2.36-1.66s.41-1.11,1.67-1.11A6.07,6.07,0,0,1,44.16,7l.58-2.2a7.07,7.07,0,0,0-2.84-.64V2.45H40V4.3C37.91,4.69,36.7,6,36.7,7.76c0,1.89,1.42,2.86,3.51,3.56,1.46.49,2.08,1,2.08,1.7s-.76,1.21-1.89,1.21a6.87,6.87,0,0,1-3.23-.86l-.58,2.28a8.14,8.14,0,0,0,3.31.84v1.85h1.93v-2c2.24-.37,3.45-1.85,3.45-3.58S44.36,9.91,42,9.09Zm-6.2,11.66h0ZM27.18,49.51V54.6a1,1,0,0,0,.89-1v-4.5Zm-3-5.39a2.67,2.67,0,1,0,0,5.34h2.23l1.67-1.4V42.76l-1.67,1.37Zm0,4a1.34,1.34,0,1,1,1.33-1.34A1.34,1.34,0,0,1,24.15,48.13Z"/></g></g></svg>