<svg xmlns="http://www.w3.org/2000/svg" viewBox="0 0 59.76 52.81"><defs><style>.cls-1{fill:#fff;}</style></defs><title>Deposit 4</title><g id="Layer_2" data-name="Layer 2"><g id="Deposit4"><path class="cls-1" d="M11.12,0A2.74,2.74,0,0,0,8.34,2.78a2.74,2.74,0,0,0,2.78,2.78H51.42V0ZM6.95,6.45V32.34A11.06,11.06,0,0,1,20.48,45.86H56.29a3.47,3.47,0,0,0,3.47-3.47V36.14H39.61a3.5,3.5,0,0,1-3.47-3.47V21.54a3.5,3.5,0,0,1,3.47-3.47H59.76V11.81a3.47,3.47,0,0,0-3.47-3.47l-45.82,0A5.55,5.55,0,0,1,6.95,6.45Zm32.66,14.4a.67.67,0,0,0-.69.69V32.66a.67.67,0,0,0,.69.69H59.76V20.85ZM45.17,25a2.08,2.08,0,1,1-2.08,2.08A2.08,2.08,0,0,1,45.17,25ZM9.73,33.36a9.73,9.73,0,1,0,9.73,9.73A9.73,9.73,0,0,0,9.73,33.36Zm0,3.47a1.39,1.39,0,0,1,1.39,1.39V41.7h3.47a1.39,1.39,0,0,1,0,2.78H11.12v3.47a1.39,1.39,0,1,1-2.78,0V44.47H4.86a1.39,1.39,0,1,1,0-2.78H8.34V38.22A1.39,1.39,0,0,1,9.73,36.83Z"/></g></g></svg>