<svg xmlns="http://www.w3.org/2000/svg" viewBox="0 0 56.33 56.33"><defs><style>.cls-1{fill:#fff;}</style></defs><title>Deposit 3</title><g id="Layer_2" data-name="Layer 2"><g id="Deposit3"><ellipse class="cls-1" cx="15.84" cy="38.73" rx="15.84" ry="7.04"/><path class="cls-1" d="M15.84,52.81c-7.37,0-13.52-2.25-15.28-5.28A3.53,3.53,0,0,0,0,49.29c0,3.89,7.09,7,15.84,7s15.84-3.15,15.84-7a3.54,3.54,0,0,0-.56-1.76C29.36,50.56,23.22,52.81,15.84,52.81Z"/><path class="cls-1" d="M40.49,49.29c-1.86,0-5.28-.14-5.28-.4v3.5c0,.26,3.42.43,5.28.43,8.75,0,15.84-3.15,15.84-7A3.54,3.54,0,0,0,55.77,44C54,47,47.86,49.29,40.49,49.29Z"/><path class="cls-1" d="M40.49,42.25c8.75,0,15.84-3.15,15.84-7s-7.09-7-15.84-7A26.68,26.68,0,0,0,28.41,30.7c4.15,1.94,6.8,4.81,6.8,8a6.27,6.27,0,0,1-.79,3A33.67,33.67,0,0,0,40.49,42.25Z"/><polygon class="cls-1" points="31.69 0 24.65 0 24.65 10.56 17.6 10.56 28.17 21.13 38.73 10.56 31.69 10.56 31.69 0"/></g></g></svg>