<svg xmlns="http://www.w3.org/2000/svg" viewBox="0 0 69.7 38.78"><defs><style>.cls-1{fill:#fff;}</style></defs><title>instant 3</title><g id="Layer_2" data-name="Layer 2"><g id="Instant"><path class="cls-1" d="M64.95,12.61H63.07V3.83A1.17,1.17,0,0,0,62,2.6H34.41a1.17,1.17,0,0,0-1.09,1.23v2.5H31.44V3.82a3,3,0,0,1,3-3.11H62a3,3,0,0,1,3,3.11Z"/><path class="cls-1" d="M34.56,31.35H28.8a2.88,2.88,0,0,1-2.12-.93,3.17,3.17,0,0,1-.85-2.18V10.67a3,3,0,0,1,3-3.11H56.38a3,3,0,0,1,3,3.11V12.6H57.46V10.69a1.17,1.17,0,0,0-1.09-1.23H28.81a1.17,1.17,0,0,0-1.09,1.23V28.24a1.3,1.3,0,0,0,.34.89,1,1,0,0,0,.75.34h5.76Z"/><path class="cls-1" d="M66.73,38.78H39.15a3,3,0,0,1-3-3.11V18.09a3,3,0,0,1,3-3.11H66.74a3,3,0,0,1,3,3.11V35.68A3,3,0,0,1,66.73,38.78ZM39.16,16.87a1.17,1.17,0,0,0-1.09,1.23V35.66a1.17,1.17,0,0,0,1.09,1.23H66.73a1.17,1.17,0,0,0,1.09-1.23V18.11a1.17,1.17,0,0,0-1.09-1.23Z"/><rect class="cls-1" x="37.14" y="20.96" width="31.94" height="4.01"/><path class="cls-1" d="M26.77,2.45h-15a1.22,1.22,0,1,1,0-2.45h15a1.22,1.22,0,1,1,0,2.45Z"/><path class="cls-1" d="M21.52,10.55h-15a1.22,1.22,0,0,1,0-2.45h15a1.22,1.22,0,1,1,0,2.45Z"/><path class="cls-1" d="M21.52,26.75H1.22a1.22,1.22,0,0,1,0-2.45H21.52a1.22,1.22,0,0,1,0,2.45Z"/><path class="cls-1" d="M21.52,34.84h-15a1.22,1.22,0,0,1,0-2.45h15a1.22,1.22,0,1,1,0,2.45Z"/><path class="cls-1" d="M21.52,18.65H1.22a1.22,1.22,0,0,1,0-2.45H21.52a1.22,1.22,0,0,1,0,2.45Z"/></g></g></svg>