<svg xmlns="http://www.w3.org/2000/svg" viewBox="0 0 55.97 55.97"><defs><style>.cls-1{fill:#fff;}</style></defs><title>Instant 1</title><g id="Layer_2" data-name="Layer 2"><g id="instant"><path class="cls-1" d="M19.53,0a.65.65,0,0,0-.65.65c0,.41.37.62.7.88a3.86,3.86,0,0,1,1.25,3,8.1,8.1,0,0,1-1.22,3.6,9.09,9.09,0,0,0-1.38,4.21,5.28,5.28,0,0,0,2.24,4.43.66.66,0,0,0,.89-.16.69.69,0,0,0-.16-.92,3.81,3.81,0,0,1-1.67-3.36,8.17,8.17,0,0,1,1.22-3.62,9,9,0,0,0,1.38-4.19,5.38,5.38,0,0,0-1.73-4C20.13.3,19.88,0,19.53,0Zm7.16,2A.65.65,0,0,0,26,2.6c0,.45.42.62.71,1a3.09,3.09,0,0,1,.59,1.95,6,6,0,0,1-.59,2.64A7.46,7.46,0,0,0,26,11.39a4.27,4.27,0,0,0,1.55,3.44.65.65,0,0,0,.81-1,2.91,2.91,0,0,1-1.06-2.42,6.07,6.07,0,0,1,.59-2.66,7.37,7.37,0,0,0,.71-3.19,4.5,4.5,0,0,0-.84-2.69C27.48,2.4,27.16,2,26.68,2ZM0,21.48v28.9A5.6,5.6,0,0,0,5.59,56H41.27a5.62,5.62,0,0,0,5.59-5.59V47.51h4.56A4.56,4.56,0,0,0,56,43v-13a4.56,4.56,0,0,0-4.56-4.56H46.86V21.48a.68.68,0,0,0-.65-.65H.65A.66.66,0,0,0,0,21.48Zm1.3.65H16.92v8.46H13.67a.66.66,0,0,0-.65.65V41.65a.68.68,0,0,0,.65.65h7.81a.68.68,0,0,0,.65-.65V31.24a.68.68,0,0,0-.65-.65H18.22V22.13H45.56V50.36s0,0,0,0a4.3,4.3,0,0,1-4.29,4.29H5.59A4.27,4.27,0,0,1,1.3,50.38Zm45.56,4.56h4.56a3.23,3.23,0,0,1,3.25,3.25V43a3.23,3.23,0,0,1-3.25,3.25H46.86ZM14.32,31.89h6.51V41H14.32Z"/></g></g></svg>