<svg xmlns="http://www.w3.org/2000/svg" viewBox="0 0 79.67 79.67"><defs><style>.cls-1{fill:#fff;}</style></defs><title>Limit 2</title><g id="Layer_2" data-name="Layer 2"><g id="Limit"><path class="cls-1" d="M57.38,18.46a27.25,27.25,0,0,0-35.46,1.27l3,3a22.93,22.93,0,0,1,29.37-1.24ZM44.06,37.58,60.22,21a1.2,1.2,0,0,0-1.69-1.69L42.43,35.82a4.76,4.76,0,1,0,1.63,1.76ZM38.4,39.83a1.43,1.43,0,1,1,1.43,1.43A1.43,1.43,0,0,1,38.4,39.83Zm-31.15,0A32.59,32.59,0,1,1,39.83,72.42,32.59,32.59,0,0,1,7.25,39.83ZM0,39.83A39.83,39.83,0,1,0,39.83,0,39.84,39.84,0,0,0,0,39.83Z"/></g></g></svg>