<svg xmlns="http://www.w3.org/2000/svg" viewBox="0 0 79.64 79.64"><defs><style>.cls-1{fill:#fff;}</style></defs><title>Limit or pending</title><g id="Layer_2" data-name="Layer 2"><g id="Pending"><path class="cls-1" d="M39.86,73.74A33.94,33.94,0,0,1,35.43,6.15v-6a39.85,39.85,0,1,0,44,44h-6A34,34,0,0,1,39.86,73.74Z"/><path class="cls-1" d="M67.91,38.31H44a4.4,4.4,0,0,0-2.68-2.68V11.74h-3V35.63A4.42,4.42,0,1,0,44,41.26H67.91Z"/><path class="cls-1" d="M55.53,9.7l3-5.13a39.5,39.5,0,0,0-6.9-2.87L50.06,7.4A33.46,33.46,0,0,1,55.53,9.7Z"/><path class="cls-1" d="M73.74,38.31h5.9a39.94,39.94,0,0,0-1-7.4L73,32.43A34.3,34.3,0,0,1,73.74,38.31Z"/><path class="cls-1" d="M62.76,14.79l4.19-4.19A39.91,39.91,0,0,0,61,6.06l-3,5.12A34.45,34.45,0,0,1,62.76,14.79Z"/><path class="cls-1" d="M68.46,21.56l5.12-3A40,40,0,0,0,69,12.69l-4.19,4.19A34.4,34.4,0,0,1,68.46,21.56Z"/><path class="cls-1" d="M47.21,6.65,48.74,1a39.67,39.67,0,0,0-7.4-1V5.9A34.27,34.27,0,0,1,47.21,6.65Z"/><path class="cls-1" d="M72.24,29.58,78,28a39.41,39.41,0,0,0-2.88-6.9l-5.13,3A33.48,33.48,0,0,1,72.24,29.58Z"/></g></g></svg>