<svg xmlns="http://www.w3.org/2000/svg" viewBox="0 0 54.52 67.57"><defs><style>.cls-1{fill:#fff;}</style></defs><title>Most recent</title><g id="Layer_2" data-name="Layer 2"><g id="Most_Recent" data-name="Most Recent"><path class="cls-1" d="M15.89,56.2H1.07A1.08,1.08,0,0,1,0,55.14V1.07A1.08,1.08,0,0,1,1.07,0H41.37a1.08,1.08,0,0,1,1.07,1.07V28.32a1.08,1.08,0,0,1-1.07,1.07,1.15,1.15,0,0,1-1.07-1.07V2.13H2.22V54H16A1.08,1.08,0,0,1,17,55,1.24,1.24,0,0,1,15.89,56.2Z"/><path class="cls-1" d="M36.76,67.57A17.76,17.76,0,1,1,54.52,49.81,17.81,17.81,0,0,1,36.76,67.57Zm0-33.3A15.54,15.54,0,1,0,52.3,49.81,15.61,15.61,0,0,0,36.76,34.27Z"/><path class="cls-1" d="M47.86,50.87H36.76a1.08,1.08,0,0,1-1.07-1.07V38.44a1.08,1.08,0,0,1,1.07-1.07,1.15,1.15,0,0,1,1.07,1.07V48.66h9.94a1.11,1.11,0,0,1,.09,2.22Z"/><path class="cls-1" d="M32.76,9.41H9.06A1.08,1.08,0,0,1,8,8.35,1.15,1.15,0,0,1,9.06,7.28H32.76a1.07,1.07,0,0,1,0,2.13Z"/><path class="cls-1" d="M32.76,15.8H9.06A1.08,1.08,0,0,1,8,14.74a1.15,1.15,0,0,1,1.07-1.07H32.76a1.07,1.07,0,0,1,0,2.13Z"/><path class="cls-1" d="M32.76,22.29H9.06A1.08,1.08,0,0,1,8,21.22a1.15,1.15,0,0,1,1.07-1.07H32.76a1.07,1.07,0,0,1,0,2.13Z"/><path class="cls-1" d="M31,28.68H9.06A1.08,1.08,0,0,1,8,27.61a1.15,1.15,0,0,1,1.07-1.07H31a1.07,1.07,0,1,1,0,2.13Z"/><path class="cls-1" d="M19.44,35.16H9.06A1.08,1.08,0,0,1,8,34.09,1.15,1.15,0,0,1,9.06,33H19.44a1.07,1.07,0,0,1,0,2.13Z"/><path class="cls-1" d="M14.83,41.55H9.06A1.08,1.08,0,0,1,8,40.49a1.15,1.15,0,0,1,1.07-1.07h5.77a1.07,1.07,0,0,1,0,2.13Z"/><path class="cls-1" d="M13.05,48h-4A1.08,1.08,0,0,1,8,47,1.15,1.15,0,0,1,9.06,45.9h4a1.07,1.07,0,1,1,0,2.13Z"/></g></g></svg>