<svg xmlns="http://www.w3.org/2000/svg" viewBox="0 0 69.89 53.6"><defs><style>.cls-1{fill:#fff;}</style></defs><title>Most recent 2</title><g id="Layer_2" data-name="Layer 2"><g id="Most_Recent" data-name="Most Recent"><path class="cls-1" d="M55.58,0A14.3,14.3,0,0,0,43.44,6.78C35,8,30.41,10.09,28.85,10.92c-2.23-1.18-10.77-5-27.73-5A1.12,1.12,0,0,0,0,7V47.3a1.12,1.12,0,0,0,1.12,1.12c18.84,0,27,4.94,27.14,5h0l.1,0,.08,0h0l.09,0a1.12,1.12,0,0,0,.27,0h0a1.12,1.12,0,0,0,.27,0l.09,0h0l.08,0,.1-.05h0c.08-.05,8.15-5,27.14-5a1.12,1.12,0,0,0,1.12-1.12V28.44A14.3,14.3,0,0,0,55.58,0ZM27.73,50.65c-3.27-1.49-11.33-4.32-25.5-4.47v-38c15.54.16,23.51,3.7,25.5,4.72ZM45.5,15.44l-1.1,1.83-1.82,3-2.92-4.87H45.5ZM57.71,26.18a12.06,12.06,0,0,1-2.12.2h-.11a12,12,0,0,1-4.34-.84,1.17,1.17,0,0,0-1.45.63,1.12,1.12,0,0,0,.63,1.45,14.24,14.24,0,0,0,5.16,1V46.18c-14.17.14-22.23,3-25.5,4.47V12.86c1.31-.68,5.23-2.45,12.24-3.62a14.19,14.19,0,0,0-.89,4H37.68a1.12,1.12,0,0,0-1,1.69l4.9,8.16a1.12,1.12,0,0,0,1.92,0l2.25-3.75,2.65-4.41a1.12,1.12,0,0,0-1-1.69H43.56a12,12,0,0,1,1.26-4.34A12.06,12.06,0,1,1,57.71,26.18Z"/><path class="cls-1" d="M60.91,17.37l-3.2-2.67-1.05-.88V6.63a1.12,1.12,0,0,0-2.24,0v7.72a1.12,1.12,0,0,0,.4.86l.65.54,2.24,1.86,3.73,3.11A1.12,1.12,0,0,0,62.87,19Z"/><path class="cls-1" d="M8.28,19.28a64.24,64.24,0,0,1,13.2,2.2,1.13,1.13,0,0,0,.31,0,1.12,1.12,0,0,0,.31-2.19A66.5,66.5,0,0,0,8.44,17.05a1.14,1.14,0,0,0-1.2,1A1.12,1.12,0,0,0,8.28,19.28Z"/><path class="cls-1" d="M8.28,26.37a64.24,64.24,0,0,1,13.2,2.2,1.13,1.13,0,0,0,.31,0,1.12,1.12,0,0,0,.31-2.19A66.5,66.5,0,0,0,8.44,24.14a1.14,1.14,0,0,0-1.2,1A1.12,1.12,0,0,0,8.28,26.37Z"/><path class="cls-1" d="M8.28,33.45a64.24,64.24,0,0,1,13.2,2.2,1.13,1.13,0,0,0,.31,0,1.12,1.12,0,0,0,.31-2.19A66.51,66.51,0,0,0,8.44,31.22a1.13,1.13,0,0,0-1.2,1A1.12,1.12,0,0,0,8.28,33.45Z"/><path class="cls-1" d="M8.28,40.54a64.22,64.22,0,0,1,13.2,2.2,1.13,1.13,0,0,0,.31,0,1.12,1.12,0,0,0,.31-2.19A66.49,66.49,0,0,0,8.44,38.3a1.13,1.13,0,0,0-1.2,1A1.12,1.12,0,0,0,8.28,40.54Z"/><path class="cls-1" d="M35.6,33.5a1.12,1.12,0,0,0,.31,2.19,1.13,1.13,0,0,0,.31,0,64.24,64.24,0,0,1,13.2-2.2,1.12,1.12,0,0,0-.16-2.23A66.49,66.49,0,0,0,35.6,33.5Z"/><path class="cls-1" d="M49.27,38.3A66.47,66.47,0,0,0,35.6,40.58a1.12,1.12,0,0,0,.31,2.19,1.13,1.13,0,0,0,.31,0,64.21,64.21,0,0,1,13.2-2.2,1.12,1.12,0,0,0-.16-2.23Z"/></g></g></svg>