<svg xmlns="http://www.w3.org/2000/svg" viewBox="0 0 68.77 56.85"><defs><style>.cls-1{fill:#fff;}</style></defs><title>open close 2</title><g id="Layer_2" data-name="Layer 2"><g id="Open_Close" data-name="Open Close"><path class="cls-1" d="M.74,45a2.51,2.51,0,0,0,0,3.55L8.24,56.1a2.59,2.59,0,0,0,.4.33l.08,0a2.63,2.63,0,0,0,.35.18l.14,0a2.46,2.46,0,0,0,.33.1l.23,0,.26,0,.24,0,.25,0,.3-.09.17-.05a2.53,2.53,0,0,0,.31-.16l.13-.07a2.51,2.51,0,0,0,.39-.32l7.51-7.51A2.51,2.51,0,0,0,15.77,45l-3.23,3.23V29.2a2.51,2.51,0,1,0-5,0V48.27L4.29,45A2.51,2.51,0,0,0,.74,45Z"/><path class="cls-1" d="M68,11.81a2.51,2.51,0,0,0,0-3.55L60.53.75a2.59,2.59,0,0,0-.4-.33L60,.37a2.63,2.63,0,0,0-.35-.18l-.14,0a2.46,2.46,0,0,0-.33-.1L59,0l-.26,0L58.5,0l-.25,0L58,.14l-.17.05a2.53,2.53,0,0,0-.31.16l-.13.07A2.51,2.51,0,0,0,57,.74L49.44,8.25A2.51,2.51,0,1,0,53,11.81l3.23-3.23V27.65a2.51,2.51,0,1,0,5,0V8.58l3.23,3.23A2.51,2.51,0,0,0,68,11.81Z"/><path class="cls-1" d="M19.92,38.29a2.63,2.63,0,0,1,2.63-2.63h23.7a2.63,2.63,0,1,1,0,5.27H22.56A2.63,2.63,0,0,1,19.92,38.29Z"/><path class="cls-1" d="M19.92,28a2.63,2.63,0,0,1,2.63-2.63h23.7a2.63,2.63,0,1,1,0,5.27H22.56A2.63,2.63,0,0,1,19.92,28Z"/><path class="cls-1" d="M19.92,17.72a2.63,2.63,0,0,1,2.63-2.63h23.7a2.63,2.63,0,1,1,0,5.27H22.56A2.63,2.63,0,0,1,19.92,17.72Z"/></g></g></svg>