<svg xmlns="http://www.w3.org/2000/svg" viewBox="0 0 75.7 40.47"><defs><style>.cls-1{fill:#fff;}</style></defs><title>open close</title><g id="Layer_2" data-name="Layer 2"><g id="open_close" data-name="open close"><rect class="cls-1" x="22.28" y="4.39" width="7.41" height="7.41"/><rect class="cls-1" x="34.15" y="4.39" width="7.41" height="7.41"/><rect class="cls-1" x="46.02" y="4.39" width="7.41" height="7.41"/><rect class="cls-1" x="22.28" y="16.2" width="7.41" height="7.41"/><rect class="cls-1" x="34.15" y="16.2" width="7.41" height="7.41"/><rect class="cls-1" x="46.02" y="16.2" width="7.41" height="7.41"/><rect class="cls-1" x="22.28" y="28.01" width="7.41" height="7.41"/><rect class="cls-1" x="34.15" y="28.01" width="7.41" height="7.41"/><rect class="cls-1" x="62.83" y="3.5" width="7.01" height="20.44"/><rect class="cls-1" x="56.4" y="4.12" width="13.25" height="3.89" transform="translate(14.17 46.34) rotate(-45)"/><rect class="cls-1" x="67.45" y="-0.46" width="4.18" height="13.25" transform="translate(16.01 50.98) rotate(-45)"/><polygon class="cls-1" points="12.88 16.53 12.88 36.97 5.87 36.97 5.87 16.53 9.37 16.53 12.88 16.53"/><rect class="cls-1" x="6.05" y="32.46" width="13.25" height="3.89" transform="translate(-20.61 19.04) rotate(-45)"/><rect class="cls-1" x="4.07" y="27.68" width="4.18" height="13.25" transform="translate(-22.45 14.4) rotate(-45)"/></g></g></svg>