<svg xmlns="http://www.w3.org/2000/svg" viewBox="0 0 68.53 52.72"><defs><style>.cls-1{fill:#fff;}</style></defs><title>open close 3</title><g id="Layer_2" data-name="Layer 2"><g id="Open_Close_Orders" data-name="Open Close Orders"><path class="cls-1" d="M57.91,52.72a10.55,10.55,0,0,1-8.4-4.18L36.08,50.77H33.27l-14-2.58a10.56,10.56,0,0,1-8.65,4.53A10.7,10.7,0,0,1,0,41.95,10.81,10.81,0,0,1,4.69,33V0L33.27,4.74h2.81L64.66,0V33.63a10.81,10.81,0,0,1,3.87,8.32A10.7,10.7,0,0,1,57.91,52.72ZM3.8,41v2H17.38V41ZM33.27,7.59,7.5,2.85v28.8a10.47,10.47,0,0,1,3.12-.47A10.7,10.7,0,0,1,21.24,41.95a10.88,10.88,0,0,1-.62,3.65l12.65,2.33ZM61.85,2.85,36.08,7.59V47.92L48,45.73a10.89,10.89,0,0,1-.68-3.79A10.7,10.7,0,0,1,57.91,31.17a10.46,10.46,0,0,1,3.94.77V2.85ZM58.88,41V35.12H56.95V41H51.09v2h5.86v5.87h1.93V43h5.79V41ZM38.42,26.57,59,22.77v2.37l-20.62,3.8Zm0-7.12L59,15.66V18l-20.62,3.8Zm0-7.12L59,8.54v2.37l-20.62,3.8ZM9.37,22.77,30,26.57v2.37L9.37,25.15Zm0-7.12L30,19.45v2.37L9.37,18Zm0-7.12L30,12.34v2.37L9.37,10.91Z"/></g></g></svg>