<svg xmlns="http://www.w3.org/2000/svg" viewBox="0 0 55.31 56.12"><defs><style>.cls-1{fill:#fff;}</style></defs><title>Withdrawal 3</title><g id="Layer_2" data-name="Layer 2"><g id="withdrwal2"><path class="cls-1" d="M41.93,34.65H55.31V23.9H41.93ZM48,27.21a2.09,2.09,0,1,1-1.77,2.06A1.93,1.93,0,0,1,48,27.21Z"/><path class="cls-1" d="M40.94,21.91H55.31v-8a3.3,3.3,0,0,0-3-3.51h-3L48.07,3.65a4.58,4.58,0,0,0-2-3.17A3.17,3.17,0,0,0,43.45.14L10.76,10.27A3.83,3.83,0,0,0,8.63,12l0,0a3.89,3.89,0,0,0-.49,1.89V30.41a15,15,0,0,1,4.17-.6A14.53,14.53,0,0,1,27,44.13a14,14,0,0,1-.51,3.74H52.27a3.3,3.3,0,0,0,3-3.51V36.64H40.94a1,1,0,0,1-1-1V22.91A1,1,0,0,1,40.94,21.91Zm-24-11.48L44,2a1.19,1.19,0,0,1,1,.14A2.66,2.66,0,0,1,46.12,4l1.15,6.44Z"/><path class="cls-1" d="M12.35,32.15a12,12,0,1,0,0,24,12.41,12.41,0,0,0,11.56-7.75,11.6,11.6,0,0,0,.79-4.23A12.19,12.19,0,0,0,12.35,32.15ZM17.11,45.3H7.59a1.17,1.17,0,0,1,0-2.34h9.52a1.17,1.17,0,1,1,0,2.34Z"/></g></g></svg>