<svg xmlns="http://www.w3.org/2000/svg" viewBox="0 0 56.8 56.8"><defs><style>.cls-1{fill:#fff;}</style></defs><title>Withdrawal</title><g id="Layer_2" data-name="Layer 2"><g id="withdrwal"><ellipse class="cls-1" cx="15.97" cy="39.05" rx="15.97" ry="7.1"/><path class="cls-1" d="M16,53.25C8.54,53.25,2.35,51,.56,47.92A3.55,3.55,0,0,0,0,49.7c0,3.92,7.15,7.1,16,7.1s16-3.18,16-7.1a3.57,3.57,0,0,0-.56-1.77C29.6,51,23.41,53.25,16,53.25Z"/><path class="cls-1" d="M40.82,49.7c-1.87,0-5.32-.15-5.32-.41v3.53c0,.26,3.45.43,5.32.43,8.82,0,16-3.18,16-7.1a3.57,3.57,0,0,0-.56-1.77C54.45,47.43,48.26,49.7,40.82,49.7Z"/><path class="cls-1" d="M40.82,42.6c8.82,0,16-3.18,16-7.1s-7.15-7.1-16-7.1A26.9,26.9,0,0,0,28.64,31c4.19,2,6.86,4.85,6.86,8.09a6.32,6.32,0,0,1-.8,3A34,34,0,0,0,40.82,42.6Z"/><polygon class="cls-1" points="24.85 21.3 31.95 21.3 31.95 10.65 39.05 10.65 28.4 0 17.75 10.65 24.85 10.65 24.85 21.3"/></g></g></svg>