<svg xmlns="http://www.w3.org/2000/svg" viewBox="0 0 59.65 73.61"><defs><style>.cls-1{fill:#fff;}</style></defs><title>Withdrawal 2</title><g id="Layer_2" data-name="Layer 2"><g id="withdrwal1"><path class="cls-1" d="M47.09,27.11l.17,0,.26,0Zm2,15.17c0-.07,0-.13.08-.2a15.92,15.92,0,0,0,1-2.8H38.43l4,3h6.66ZM38.23,18.79a1.33,1.33,0,0,0,1.19.74A1.35,1.35,0,0,0,40,19.4a1.32,1.32,0,0,0,.73-1.14,18,18,0,0,1,10,24.59A1.33,1.33,0,0,0,53.14,44,20.67,20.67,0,0,0,41.58,15.74a1.32,1.32,0,0,0-1.65-2l-2.18,1.07a1.33,1.33,0,0,0-.6,1.78ZM50.42,32.2H29l6.14,4.63H50.61A16.44,16.44,0,0,0,50.42,32.2ZM24.58,21.64a12.62,12.62,0,0,1-5.94-1.57l-1.07,4.19a14.92,14.92,0,0,0,6.08,1.54v3.4h3.54V25.5c4.11-.68,6.33-3.4,6.33-6.58s-1.68-5.22-5.94-6.72c-3.08-1.11-4.33-1.9-4.33-3s.75-2,3.08-2a11.12,11.12,0,0,1,5.15,1.25l1.07-4a12.94,12.94,0,0,0-5.22-1.18V0h-3.5V3.4c-3.83.72-6,3.18-6,6.37,0,3.47,2.61,5.26,6.44,6.54C26.9,17.2,28,18.06,28,19.42S26.65,21.64,24.58,21.64ZM7.2,22.23C5,21.43,4.09,20.87,4.09,20s.54-1.46,2.21-1.46a8,8,0,0,1,3.71.9l.77-2.91A9.32,9.32,0,0,0,7,15.73V13.47H4.5v2.44C1.75,16.42.15,18.2.15,20.48.15,23,2,24.26,4.78,25.19c1.93.64,2.75,1.26,2.75,2.24S6.53,29,5,29A9.05,9.05,0,0,1,.77,27.89L0,30.9A10.76,10.76,0,0,0,4.37,32v2.44H6.91V31.79c3-.49,4.55-2.44,4.55-4.73S10.26,23.31,7.2,22.23ZM43.85,45.82,25.32,32.2a2.72,2.72,0,0,0-2.72,2.72V57.26c0,1.2.77,1.4,2.72,2.72L43.85,73.61a2.73,2.73,0,0,0,2.72-2.73V48.54C46.54,47.55,43.85,45.82,43.85,45.82Zm15.8-10.9a2.72,2.72,0,0,0-2.73-2.72h-.24a22.29,22.29,0,0,1-1.93,12.54,3.11,3.11,0,0,1-2.8,1.77,3.1,3.1,0,0,1-2.8-1.78H45.66L46,45s2.72,1.56,2.72,2.72V61.35h8.17a2.72,2.72,0,0,0,2.72-2.72ZM12.27,6.77c-1.21-.44-1.71-.75-1.71-1.2s.3-.8,1.21-.8a4.37,4.37,0,0,1,2,.49l.42-1.59a5.07,5.07,0,0,0-2.06-.47V2H10.79V3.3A2.58,2.58,0,0,0,8.4,5.81c0,1.37,1,2.07,2.54,2.58,1.06.35,1.51.69,1.51,1.23s-.55.87-1.37.87a5,5,0,0,1-2.34-.62l-.42,1.65a5.92,5.92,0,0,0,2.4.61v1.34h1.39V12a2.67,2.67,0,0,0,2.5-2.59C14.61,8.14,13.94,7.36,12.27,6.77Z"/></g></g></svg>