<svg xmlns="http://www.w3.org/2000/svg" xmlns:xlink="http://www.w3.org/1999/xlink" viewBox="0 0 176 176"><defs><style>.cls-1{fill:none;}.cls-2{fill:url(#linear-gradient);}.cls-3{fill:#fff;}</style><linearGradient id="linear-gradient" x1="8.47" y1="10.06" x2="151.11" y2="152.69" gradientUnits="userSpaceOnUse"><stop offset="0" stop-color="#212121" stop-opacity="0.2"/><stop offset="1" stop-color="#212121" stop-opacity="0"/></linearGradient></defs><title>Current sell buy</title><g id="Layer_2" data-name="Layer 2"><g id="Current_Buy_Sell" data-name="Current Buy Sell"><path class="cls-1" d="M62.94,114.76a4.65,4.65,0,0,1-.71-.7,4.66,4.66,0,0,1-.71-.7,4.65,4.65,0,0,1-.71-.7,4.65,4.65,0,0,1-.71-.7,4.65,4.65,0,0,1-.71-.7,4.65,4.65,0,0,1-.71-.7,4.65,4.65,0,0,1-.71-.7,4.65,4.65,0,0,1-.71-.7,4.65,4.65,0,0,1-.71-.7,4.66,4.66,0,0,1-.71-.7,4.66,4.66,0,0,1-.71-.7,4.66,4.66,0,0,1-.71-.7,4.65,4.65,0,0,1-.71-.7,4.65,4.65,0,0,1-.71-.7,4.66,4.66,0,0,1-.71-.7,4.65,4.65,0,0,1-.71-.7,4.66,4.66,0,0,1-.71-.7,4.65,4.65,0,0,1-.71-.7,4.66,4.66,0,0,1-.71-.7,4.65,4.65,0,0,1-.71-.7A4.65,4.65,0,0,1,48,100a4.65,4.65,0,0,1-.71-.7,4.65,4.65,0,0,1-.71-.7,4.65,4.65,0,0,1-.71-.7,4.66,4.66,0,0,1-.71-.7,4.66,4.66,0,0,1-.71-.7,4.66,4.66,0,0,1-.71-.7A4.66,4.66,0,0,1,43,95a4.66,4.66,0,0,1-.71-.7,4.65,4.65,0,0,1-.71-.7,4.65,4.65,0,0,1-.71-.7,4.66,4.66,0,0,1-.71-.7,4.65,4.65,0,0,1-.71-.7,4.65,4.65,0,0,1-.71-.7,4.66,4.66,0,0,1-.71-.7,4.65,4.65,0,0,1-.71-.7,4.65,4.65,0,0,1-.71-.7,4.65,4.65,0,0,1-.71-.7,4.66,4.66,0,0,1-.71-.7,4.65,4.65,0,0,1-.71-.7,4.65,4.65,0,0,1-.71-.7,4.66,4.66,0,0,1-.71-.7,4.66,4.66,0,0,1-.71-.7,4.66,4.66,0,0,1-.71-.7,4.65,4.65,0,0,1-.71-.7,4.65,4.65,0,0,1-.71-.7,4.65,4.65,0,0,1-.71-.7,4.65,4.65,0,0,1-.71-.7,4.65,4.65,0,0,1-.71-.7,4.65,4.65,0,0,1-.71-.7,4.66,4.66,0,0,1-.71-.7,4.65,4.65,0,0,1-.71-.7,4.65,4.65,0,0,1-.71-.7,4.65,4.65,0,0,1-.71-.7,4.65,4.65,0,0,1-.71-.7,4.65,4.65,0,0,1-.71-.7,4.65,4.65,0,0,1-.71-.7,4.65,4.65,0,0,1-.71-.7,4.66,4.66,0,0,1-.71-.7,4.66,4.66,0,0,1-.71-.7,4.66,4.66,0,0,1-.71-.7,4.65,4.65,0,0,1-.71-.7,4.65,4.65,0,0,1-.71-.7,4.66,4.66,0,0,1-.71-.7,4.65,4.65,0,0,1-.71-.7,4.65,4.65,0,0,1-.71-.7,4.66,4.66,0,0,1-.71-.7,4.66,4.66,0,0,1-.71-.7,4.65,4.65,0,0,1-.71-.7,4.65,4.65,0,0,1-.71-.7,4.66,4.66,0,0,1-.71-.7,4.65,4.65,0,0,1-.71-.7,4.65,4.65,0,0,1-.71-.7,4.66,4.66,0,0,1-.71-.7,4.66,4.66,0,0,1-.71-.7,4.65,4.65,0,0,1-.71-.7A5.06,5.06,0,0,1,7,57.37v-6.2c-.16-.16-.29-.29-.4-.42a8,8,0,0,1-.71-.7,8,8,0,0,1-.71-.7,8,8,0,0,1-.71-.7,8,8,0,0,1-.71-.7,8,8,0,0,1-.71-.7,8,8,0,0,1-.71-.7,8,8,0,0,1-.71-.7,7.49,7.49,0,0,1-1-1h0V36.05a10.26,10.26,0,0,0,5.43,3l-.24-.24-.12-.1a8,8,0,0,1-.59-.6L5,38a8,8,0,0,1-.59-.6l-.12-.1a8,8,0,0,1-.59-.6l-.12-.1A8,8,0,0,1,3,36l-.12-.1a8,8,0,0,1-.59-.6l-.12-.1A7.42,7.42,0,0,1,0,31.68C.44,30,1.93,27.17,7,26.22V13.53a5.73,5.73,0,0,1,4.71-5.29c8-1.72,23.33-6.68,30.1-8.17A3.56,3.56,0,0,1,45.35,1.5a4.62,4.62,0,0,1,.71.7,4.62,4.62,0,0,1,.71.7,4.62,4.62,0,0,1,.71.7,4.62,4.62,0,0,1,.71.7,4.62,4.62,0,0,1,.71.7,4.44,4.44,0,0,1,.37.33c.76-.19,1.47-.36,2.1-.5A3.56,3.56,0,0,1,54.9,6.27a4.62,4.62,0,0,1,.71.7,4.62,4.62,0,0,1,.71.7,4.62,4.62,0,0,1,.71.7,4.62,4.62,0,0,1,.71.7,4.61,4.61,0,0,1,.71.7,4.61,4.61,0,0,1,.71.7,4.62,4.62,0,0,1,.71.7,4.61,4.61,0,0,1,.71.7,4.62,4.62,0,0,1,.71.7,4.62,4.62,0,0,1,.71.7,4.62,4.62,0,0,1,.71.7,4.61,4.61,0,0,1,.71.7,4.61,4.61,0,0,1,.71.7,4.62,4.62,0,0,1,.71.7,4.61,4.61,0,0,1,.71.7,4.62,4.62,0,0,1,.71.7,4.61,4.61,0,0,1,.71.7,4.62,4.62,0,0,1,.71.7,4.62,4.62,0,0,1,.71.7,4.61,4.61,0,0,1,.71.7,4.62,4.62,0,0,1,.71.7,4.61,4.61,0,0,1,.71.7,4.61,4.61,0,0,1,.71.7,4.61,4.61,0,0,1,.71.7,4.62,4.62,0,0,1,.71.7,4.62,4.62,0,0,1,.71.7,4.61,4.61,0,0,1,.71.7,4.61,4.61,0,0,1,.71.7,4.62,4.62,0,0,1,.71.7,4.61,4.61,0,0,1,.71.7,4.61,4.61,0,0,1,.71.7,4.61,4.61,0,0,1,.71.7,4.62,4.62,0,0,1,.71.7,4.62,4.62,0,0,1,.71.7,4.62,4.62,0,0,1,.71.7,4.62,4.62,0,0,1,.71.7,4.61,4.61,0,0,1,.71.7,4.62,4.62,0,0,1,.71.7,4.62,4.62,0,0,1,.71.7,4.61,4.61,0,0,1,.71.7,4.62,4.62,0,0,1,.71.7,4.62,4.62,0,0,1,.71.7,4.62,4.62,0,0,1,.71.7,4.61,4.61,0,0,1,.71.7,4.61,4.61,0,0,1,.71.7,4.62,4.62,0,0,1,.71.7,4.61,4.61,0,0,1,.71.7,4.62,4.62,0,0,1,.71.7,4.61,4.61,0,0,1,.71.7,4.62,4.62,0,0,1,.71.7,4.62,4.62,0,0,1,.71.7,4.61,4.61,0,0,1,.71.7,4.62,4.62,0,0,1,.71.7,4.61,4.61,0,0,1,.71.7A4.62,4.62,0,0,1,94,45a4.62,4.62,0,0,1,.71.7,4.61,4.61,0,0,1,.71.7,4.62,4.62,0,0,1,.71.7,4.62,4.62,0,0,1,.71.7,4.62,4.62,0,0,1,.71.7,4.62,4.62,0,0,1,.71.7,4.61,4.61,0,0,1,.71.7,4.62,4.62,0,0,1,.71.7,4.62,4.62,0,0,1,.71.7,4.61,4.61,0,0,1,.71.7,4.62,4.62,0,0,1,.71.7,4.62,4.62,0,0,1,.71.7,4.62,4.62,0,0,1,.71.7,4.61,4.61,0,0,1,.71.7,4.62,4.62,0,0,1,.71.7,4.61,4.61,0,0,1,.71.7,4.62,4.62,0,0,1,.71.7,4.61,4.61,0,0,1,.71.7,4.62,4.62,0,0,1,.71.7,4.62,4.62,0,0,1,.71.7,4.61,4.61,0,0,1,.71.7,4.61,4.61,0,0,1,.71.7,4.62,4.62,0,0,1,.71.7,4.61,4.61,0,0,1,.71.7A25226.18,25226.18,0,0,1,112.25,63,87.94,87.94,0,1,0,63,114.87Z" transform="translate(58.69 54.43)"/><path class="cls-2" d="M111.1,61.89a4.61,4.61,0,0,0-.71-.7,4.62,4.62,0,0,0-.71-.7,4.61,4.61,0,0,0-.71-.7,4.61,4.61,0,0,0-.71-.7,4.62,4.62,0,0,0-.71-.7,4.62,4.62,0,0,0-.71-.7,4.61,4.61,0,0,0-.71-.7,4.62,4.62,0,0,0-.71-.7,4.61,4.61,0,0,0-.71-.7,4.62,4.62,0,0,0-.71-.7,4.61,4.61,0,0,0-.71-.7,4.62,4.62,0,0,0-.71-.7,4.62,4.62,0,0,0-.71-.7,4.62,4.62,0,0,0-.71-.7,4.61,4.61,0,0,0-.71-.7,4.62,4.62,0,0,0-.71-.7,4.62,4.62,0,0,0-.71-.7,4.61,4.61,0,0,0-.71-.7,4.62,4.62,0,0,0-.71-.7,4.62,4.62,0,0,0-.71-.7,4.62,4.62,0,0,0-.71-.7,4.62,4.62,0,0,0-.71-.7,4.61,4.61,0,0,0-.71-.7A4.62,4.62,0,0,0,94,45a4.62,4.62,0,0,0-.71-.7,4.61,4.61,0,0,0-.71-.7,4.62,4.62,0,0,0-.71-.7,4.61,4.61,0,0,0-.71-.7,4.62,4.62,0,0,0-.71-.7,4.62,4.62,0,0,0-.71-.7,4.61,4.61,0,0,0-.71-.7,4.62,4.62,0,0,0-.71-.7,4.61,4.61,0,0,0-.71-.7,4.62,4.62,0,0,0-.71-.7,4.61,4.61,0,0,0-.71-.7,4.61,4.61,0,0,0-.71-.7,4.62,4.62,0,0,0-.71-.7,4.62,4.62,0,0,0-.71-.7,4.62,4.62,0,0,0-.71-.7,4.61,4.61,0,0,0-.71-.7,4.62,4.62,0,0,0-.71-.7,4.62,4.62,0,0,0-.71-.7,4.61,4.61,0,0,0-.71-.7,4.62,4.62,0,0,0-.71-.7,4.62,4.62,0,0,0-.71-.7,4.62,4.62,0,0,0-.71-.7,4.62,4.62,0,0,0-.71-.7,4.61,4.61,0,0,0-.71-.7,4.61,4.61,0,0,0-.71-.7,4.61,4.61,0,0,0-.71-.7,4.62,4.62,0,0,0-.71-.7,4.61,4.61,0,0,0-.71-.7,4.61,4.61,0,0,0-.71-.7,4.62,4.62,0,0,0-.71-.7,4.62,4.62,0,0,0-.71-.7,4.61,4.61,0,0,0-.71-.7,4.61,4.61,0,0,0-.71-.7,4.61,4.61,0,0,0-.71-.7,4.62,4.62,0,0,0-.71-.7,4.61,4.61,0,0,0-.71-.7,4.62,4.62,0,0,0-.71-.7,4.62,4.62,0,0,0-.71-.7,4.61,4.61,0,0,0-.71-.7,4.62,4.62,0,0,0-.71-.7,4.61,4.61,0,0,0-.71-.7,4.62,4.62,0,0,0-.71-.7,4.61,4.61,0,0,0-.71-.7,4.61,4.61,0,0,0-.71-.7,4.62,4.62,0,0,0-.71-.7,4.62,4.62,0,0,0-.71-.7,4.62,4.62,0,0,0-.71-.7,4.61,4.61,0,0,0-.71-.7,4.62,4.62,0,0,0-.71-.7,4.61,4.61,0,0,0-.71-.7,4.61,4.61,0,0,0-.71-.7,4.62,4.62,0,0,0-.71-.7,4.62,4.62,0,0,0-.71-.7,4.62,4.62,0,0,0-.71-.7,4.62,4.62,0,0,0-.71-.7,3.56,3.56,0,0,0-3.52-1.42c-.63.14-1.34.31-2.1.5A4.44,4.44,0,0,0,48.91,5a4.62,4.62,0,0,0-.71-.7,4.62,4.62,0,0,0-.71-.7,4.62,4.62,0,0,0-.71-.7,4.62,4.62,0,0,0-.71-.7,4.62,4.62,0,0,0-.71-.7A3.56,3.56,0,0,0,41.83.07c-6.77,1.48-22.1,6.44-30.1,8.17A5.73,5.73,0,0,0,7,13.53v12.7C1.93,27.17.44,30,0,31.68a7.42,7.42,0,0,0,2.2,3.48l.12.1a8,8,0,0,0,.59.6L3,36a8,8,0,0,0,.59.6l.12.1a8,8,0,0,0,.59.6l.12.1A8,8,0,0,0,5,38l.12.1a8,8,0,0,0,.59.6l.12.1.24.24a10.26,10.26,0,0,1-5.43-3v8.78h0a7.49,7.49,0,0,0,1,1,8,8,0,0,0,.71.7,8,8,0,0,0,.71.7,8,8,0,0,0,.71.7,8,8,0,0,0,.71.7,8,8,0,0,0,.71.7,8,8,0,0,0,.71.7,8,8,0,0,0,.71.7c.11.12.24.26.4.42v6.2a5.06,5.06,0,0,0,1.86,3.89,4.65,4.65,0,0,0,.71.7,4.66,4.66,0,0,0,.71.7,4.66,4.66,0,0,0,.71.7,4.65,4.65,0,0,0,.71.7,4.65,4.65,0,0,0,.71.7,4.66,4.66,0,0,0,.71.7,4.65,4.65,0,0,0,.71.7,4.65,4.65,0,0,0,.71.7,4.66,4.66,0,0,0,.71.7,4.66,4.66,0,0,0,.71.7,4.65,4.65,0,0,0,.71.7,4.65,4.65,0,0,0,.71.7,4.66,4.66,0,0,0,.71.7,4.65,4.65,0,0,0,.71.7,4.65,4.65,0,0,0,.71.7,4.66,4.66,0,0,0,.71.7,4.66,4.66,0,0,0,.71.7,4.66,4.66,0,0,0,.71.7,4.65,4.65,0,0,0,.71.7,4.65,4.65,0,0,0,.71.7,4.65,4.65,0,0,0,.71.7,4.65,4.65,0,0,0,.71.7,4.65,4.65,0,0,0,.71.7,4.65,4.65,0,0,0,.71.7,4.65,4.65,0,0,0,.71.7,4.66,4.66,0,0,0,.71.7,4.65,4.65,0,0,0,.71.7,4.65,4.65,0,0,0,.71.7,4.65,4.65,0,0,0,.71.7,4.65,4.65,0,0,0,.71.7,4.65,4.65,0,0,0,.71.7,4.65,4.65,0,0,0,.71.7,4.66,4.66,0,0,0,.71.7,4.66,4.66,0,0,0,.71.7,4.66,4.66,0,0,0,.71.7,4.65,4.65,0,0,0,.71.7,4.65,4.65,0,0,0,.71.7,4.66,4.66,0,0,0,.71.7,4.65,4.65,0,0,0,.71.7,4.65,4.65,0,0,0,.71.7,4.65,4.65,0,0,0,.71.7,4.66,4.66,0,0,0,.71.7,4.65,4.65,0,0,0,.71.7,4.65,4.65,0,0,0,.71.7,4.66,4.66,0,0,0,.71.7,4.65,4.65,0,0,0,.71.7,4.65,4.65,0,0,0,.71.7A4.66,4.66,0,0,0,43,95a4.66,4.66,0,0,0,.71.7,4.66,4.66,0,0,0,.71.7,4.66,4.66,0,0,0,.71.7,4.66,4.66,0,0,0,.71.7,4.65,4.65,0,0,0,.71.7,4.65,4.65,0,0,0,.71.7,4.65,4.65,0,0,0,.71.7,4.65,4.65,0,0,0,.71.7,4.65,4.65,0,0,0,.71.7,4.66,4.66,0,0,0,.71.7,4.65,4.65,0,0,0,.71.7,4.66,4.66,0,0,0,.71.7,4.65,4.65,0,0,0,.71.7,4.66,4.66,0,0,0,.71.7,4.65,4.65,0,0,0,.71.7,4.65,4.65,0,0,0,.71.7,4.66,4.66,0,0,0,.71.7,4.66,4.66,0,0,0,.71.7,4.66,4.66,0,0,0,.71.7,4.65,4.65,0,0,0,.71.7,4.65,4.65,0,0,0,.71.7,4.65,4.65,0,0,0,.71.7,4.65,4.65,0,0,0,.71.7,4.65,4.65,0,0,0,.71.7,4.65,4.65,0,0,0,.71.7,4.65,4.65,0,0,0,.71.7,4.66,4.66,0,0,0,.71.7,4.65,4.65,0,0,0,.71.7l.1.1A88.26,88.26,0,0,0,112.25,63a25226.18,25226.18,0,0,0-1.15-1.14Z" transform="translate(58.69 54.43)"/><path class="cls-3" d="M29.25,25.75a2,2,0,0,1-.54-3.94l16.11-4.5a2,2,0,0,1,1.08,3.86l-16.11,4.5A2,2,0,0,1,29.25,25.75Z" transform="translate(58.69 54.43)"/><path class="cls-3" d="M29.25,33.69a2,2,0,0,1-.54-3.94l16.11-4.5a2,2,0,0,1,1.08,3.86l-16.11,4.5A2,2,0,0,1,29.25,33.69Z" transform="translate(58.69 54.43)"/><path class="cls-3" d="M.68,44.83c.65.83,3.62,4.07,10.54,4.07A33.65,33.65,0,0,0,23,46.41L24.18,46v4.27l7.65-10.35L23.89,33v4.28l-.59.19a45.69,45.69,0,0,1-12.52,2.08c-4.63,0-8.05-1.18-10.1-3.45v8.78Z" transform="translate(58.69 54.43)"/><path class="cls-3" d="M51.38,4.85c-1.32.29-3,.71-4.84,1.22V4.79c0-2.6-2.17-5.27-4.71-4.71-6.77,1.48-22.1,6.44-30.1,8.17A5.73,5.73,0,0,0,7,13.53v12.7C1.93,27.17.44,30,0,31.68a7.42,7.42,0,0,0,2.2,3.48,8.13,8.13,0,0,0,3.42,2,6.62,6.62,0,0,0,.64.18h0a14.89,14.89,0,0,0,1.48.28l.23,0,.65.07.48,0,.51,0,1.1,0V14.46a2.47,2.47,0,0,1,2-2.77c6.58-1.76,29.17-7.92,29.17-7.92a1,1,0,0,1,1,1V7.1C35.61,9.16,26.74,11.84,21.28,13a5.74,5.74,0,0,0-4.71,5.29v19c1.4-.24,2.67-.52,3.69-.77V19.23a2.47,2.47,0,0,1,2-2.77c4.37-1.17,15.79-4.28,23-6.23l1.35-.37h0l4.84-1.32a1,1,0,0,1,1,1V53.4c0,.56-.48.86-1,1-7.25,2.06-21.29,6.68-30.1,8.74-.55.13-1-.46-1-1v-2h0v-4h0v-7c-1.26.38-2.5.69-3.69.92v7.07c-1.72.47-3.35.88-4.84,1.23-.55.13-1-.46-1-1V50.61A20.29,20.29,0,0,1,7,50.21v7.16c0,2.6,2.14,5.08,4.71,4.71,1.43-.2,3.07-.54,4.84-1v1c0,2.6,2.14,5.08,4.71,4.71C29,65.75,43,60.76,51.38,58.12c2.48-.78,4.71-1.7,4.71-4.71V9.56C56.09,7,53.92,4.29,51.38,4.85Z" transform="translate(58.69 54.43)"/></g></g></svg>