<svg xmlns="http://www.w3.org/2000/svg" xmlns:xlink="http://www.w3.org/1999/xlink" viewBox="0 0 176 176"><defs><style>.cls-1{fill:none;}.cls-2{fill:url(#linear-gradient);}.cls-3{fill:#fff;}</style><linearGradient id="linear-gradient" x1="7.46" y1="20.2" x2="145.26" y2="158.01" gradientUnits="userSpaceOnUse"><stop offset="0" stop-color="#212121" stop-opacity="0.2"/><stop offset="1" stop-color="#212121" stop-opacity="0"/></linearGradient></defs><title>Deposit 2</title><g id="Layer_2" data-name="Layer 2"><g id="Deposit2"><path class="cls-1" d="M1,55.6a1.91,1.91,0,0,1-1-1.66V41.58a1.91,1.91,0,0,1,3.57-1c.29.17,6.63,6.53,6.75,6.65A18.06,18.06,0,0,1,31.59,29.72h0l-4.23-4.23-.08-.06-.09-.06-.08-.09L27,25.21l-6.81-7.59a1.92,1.92,0,1,1,2.86-2.56l.37.42c.12.08,3,3,3.09,3.05V1.92a1.91,1.91,0,0,1,3.57-1c.29.17,73.59,73.49,73.7,73.61a87.58,87.58,0,0,0,13-46.1,87.91,87.91,0,1,0-59.7,83.35C57,111.68,1.14,55.89,1,55.6Z" transform="translate(59.15 59.52)"/><path class="cls-2" d="M30.11,1a1.91,1.91,0,0,0-3.57,1v16.6c-.08-.09-3-3-3.09-3.05l-.37-.42a1.92,1.92,0,1,0-2.86,2.56L27,25.21l.08.07.08.09.09.06.08.06,4.23,4.23h0A18.06,18.06,0,0,0,10.33,47.28c-.12-.12-6.46-6.48-6.75-6.65a1.91,1.91,0,0,0-3.57,1V53.95A1.91,1.91,0,0,0,1,55.6c.17.29,56,56.08,56.18,56.23a88.25,88.25,0,0,0,46.67-37.25C103.7,74.46,30.41,1.14,30.11,1Z" transform="translate(59.15 59.52)"/><path class="cls-1" d="M31.17,46.05l-3.42-1-.11,0c-.91-.23-1.87-.57-1.87-1.58s1.68-1.39,2.59-1.39c2.65,0,2.8,1.4,2.89,2.28a.32.32,0,0,0,.32.29h3.09a.32.32,0,0,0,.32-.32v-.09c0-3.18-1.45-5.09-4.39-5.73V37.22a.32.32,0,0,0-.32-.32H27.14a.32.32,0,0,0-.32.32v1.17c-3.67.49-5,2.91-5,5.19,0,4.27,3.13,5.1,5.44,5.71l2,.52c1.71.46,2.54.73,2.53,1.8a1.25,1.25,0,0,1-.07.41h4c0-.14,0-.27,0-.41A5.82,5.82,0,0,0,31.17,46.05Z" transform="translate(59.15 59.52)"/><path class="cls-1" d="M25.33,50.76H22a.32.32,0,0,0-.32.32,6.84,6.84,0,0,0,.06.94h4.06a1.88,1.88,0,0,1-.2-.95A.32.32,0,0,0,25.33,50.76Z" transform="translate(59.15 59.52)"/><path class="cls-3" d="M54.88,39.66A1.92,1.92,0,0,0,53,41.58V52H46.05a18.16,18.16,0,1,0-35.18,0h-7V41.58a1.92,1.92,0,1,0-3.84,0V53.95a1.92,1.92,0,0,0,1.92,1.92h53a1.92,1.92,0,0,0,1.92-1.92V41.58A1.92,1.92,0,0,0,54.88,39.66ZM21.79,52a6.72,6.72,0,0,1-.06-.94.32.32,0,0,1,.32-.32h3.28a.32.32,0,0,1,.32.32,1.87,1.87,0,0,0,.2.95H21.79Zm9.88,0a1.25,1.25,0,0,0,.07-.41c0-1.07-.82-1.34-2.53-1.8l-2-.52c-2.31-.61-5.47-1.44-5.44-5.71,0-2.28,1.36-4.7,5-5.19V37.22a.32.32,0,0,1,.32-.32h3.13a.32.32,0,0,1,.32.32v1.31c2.94.63,4.42,2.55,4.39,5.73v.09a.32.32,0,0,1-.32.32H31.58a.32.32,0,0,1-.32-.29c-.09-.88-.24-2.27-2.89-2.28-.92,0-2.59.29-2.59,1.39s1,1.35,1.87,1.58l.11,0,3.42,1a5.82,5.82,0,0,1,4.52,5.57c0,.14,0,.27,0,.41Z" transform="translate(59.15 59.52)"/><path class="cls-3" d="M36.42,14.89a1.92,1.92,0,0,0-2.71.17l-3.33,3.78V1.92a1.92,1.92,0,1,0-3.84,0v17l-3.46-3.86a1.92,1.92,0,1,0-2.86,2.56L27,25.21l.08.07.08.09.09.06.12.09.21.12.12.06.25.08.1,0a2,2,0,0,0,.37,0h0a1.87,1.87,0,0,0,.37,0l.12,0,.19-.05,0,0a1.88,1.88,0,0,0,.45-.25l.09-.08a1.89,1.89,0,0,0,.19-.17l6.69-7.59A1.92,1.92,0,0,0,36.42,14.89Z" transform="translate(59.15 59.52)"/></g></g></svg>