<svg xmlns="http://www.w3.org/2000/svg" xmlns:xlink="http://www.w3.org/1999/xlink" viewBox="0 0 176 176"><defs><style>.cls-1{fill:none;}.cls-2{fill:url(#linear-gradient);}.cls-3{fill:#fff;}</style><linearGradient id="linear-gradient" x1="6.05" y1="3.89" x2="148.88" y2="146.72" gradientUnits="userSpaceOnUse"><stop offset="0" stop-color="#212121" stop-opacity="0.2"/><stop offset="1" stop-color="#212121" stop-opacity="0"/></linearGradient></defs><title>Deposit 4</title><g id="Layer_2" data-name="Layer 2"><g id="Deposit4"><path class="cls-1" d="M3.22,50.3A9.71,9.71,0,0,1,8.36,33.46l-.71-1.27c-.24,0-.48.08-.71.14V6.45A5.55,5.55,0,0,0,10.47,8.3h2.22c-.12-.12-3-2.95-3.16-3.22A2.75,2.75,0,0,1,8.34,2.78,2.74,2.74,0,0,1,11.12,0H51.42V.71l60,59.9a87.94,87.94,0,1,0-49.67,48.23C61.52,108.62,3.44,50.55,3.22,50.3Z" transform="translate(57.79 61.34)"/><path class="cls-2" d="M51.42.71V0H11.12A2.74,2.74,0,0,0,8.34,2.78,2.75,2.75,0,0,0,9.53,5.07c.19.28,3,3.1,3.16,3.22H10.47A5.55,5.55,0,0,1,6.95,6.45V32.34c.23-.06.47-.09.71-.14l.71,1.27A9.71,9.71,0,0,0,3.22,50.3c.22.25,58.31,58.32,58.53,58.53a88.28,88.28,0,0,0,49.67-48.23Z" transform="translate(57.79 61.34)"/><path class="cls-3" d="M11.12,0A2.74,2.74,0,0,0,8.34,2.78a2.74,2.74,0,0,0,2.78,2.78H51.42V0ZM6.95,6.45V32.34A11.06,11.06,0,0,1,20.48,45.86H56.29a3.47,3.47,0,0,0,3.47-3.47V36.14H39.61a3.5,3.5,0,0,1-3.47-3.47V21.54a3.5,3.5,0,0,1,3.47-3.47H59.76V11.81a3.47,3.47,0,0,0-3.47-3.47l-45.82,0A5.55,5.55,0,0,1,6.95,6.45Zm32.66,14.4a.67.67,0,0,0-.69.69V32.66a.67.67,0,0,0,.69.69H59.76V20.85ZM45.17,25a2.08,2.08,0,1,1-2.08,2.08A2.08,2.08,0,0,1,45.17,25ZM9.73,33.36a9.73,9.73,0,1,0,9.73,9.73A9.73,9.73,0,0,0,9.73,33.36Zm0,3.47a1.39,1.39,0,0,1,1.39,1.39V41.7h3.47a1.39,1.39,0,0,1,0,2.78H11.12v3.47a1.39,1.39,0,0,1-2.78,0V44.47H4.86a1.39,1.39,0,1,1,0-2.78H8.34V38.22A1.39,1.39,0,0,1,9.73,36.83Z" transform="translate(57.79 61.34)"/></g></g></svg>