<svg xmlns="http://www.w3.org/2000/svg" xmlns:xlink="http://www.w3.org/1999/xlink" viewBox="0 0 176 176"><defs><style>.cls-1{fill:none;}.cls-2{fill:url(#linear-gradient);}.cls-3{fill:#fff;}</style><linearGradient id="linear-gradient" x1="3.93" y1="5" x2="153.63" y2="154.7" gradientUnits="userSpaceOnUse"><stop offset="0.01" stop-color="#212121" stop-opacity="0.2"/><stop offset="1" stop-color="#212121" stop-opacity="0"/></linearGradient></defs><title>Fav float menu</title><g id="Layer_2" data-name="Layer 2"><g id="widgets"><path class="cls-1" d="M46.21,10.09h.2a3.6,3.6,0,0,1-.12-.39C46.26,9.83,46.23,10,46.21,10.09Z" transform="translate(55.43 55.25)"/><path class="cls-1" d="M58.55,116.79C58.28,116.59,1.38,58.31,1.2,58A2.93,2.93,0,0,1,0,55.64v-17a2.92,2.92,0,0,1,3-3H7c-.08-.09-5.64-5.74-5.83-6A2.93,2.93,0,0,1,0,27.22v-17a2.92,2.92,0,0,1,3-3h19.6A3,3,0,0,1,25,8.54c.27.2,5.29,5.36,5.46,5.56V10.2a2.92,2.92,0,0,1,3-3H44.25c-.05.26-.1.49-.14.72L46.2,9.38a3.61,3.61,0,0,1-.07-.66A3.57,3.57,0,0,1,49.7,5H51V3.56A3.55,3.55,0,0,1,54.55,0a3.65,3.65,0,0,1,3,1.51c.27.21,3.75,3.79,3.87,3.91a3.53,3.53,0,0,1,1,.91c.27.21,53.41,54.67,53.52,54.79a87.91,87.91,0,1,0-57.31,55.73Z" transform="translate(55.43 55.25)"/><path class="cls-2" d="M62.38,6.33a3.53,3.53,0,0,0-1-.91c-.11-.12-3.6-3.7-3.87-3.91a3.65,3.65,0,0,0-3-1.51A3.55,3.55,0,0,0,51,3.56V5H49.7a3.57,3.57,0,0,0-3.56,3.66,3.61,3.61,0,0,0,.07.66L44.11,7.94c0-.23.09-.46.14-.72H33.46a2.92,2.92,0,0,0-3,3V14.1C30.33,13.9,25.3,8.74,25,8.54a3,3,0,0,0-2.46-1.31H3a2.92,2.92,0,0,0-3,3v17a2.93,2.93,0,0,0,1.2,2.4c.19.28,5.75,5.93,5.83,6H3a2.92,2.92,0,0,0-3,3v17A2.93,2.93,0,0,0,1.2,58c.19.28,57.08,58.56,57.35,58.76l0,.05A88.21,88.21,0,0,0,115.9,61.11C115.79,61,62.65,6.53,62.38,6.33ZM46.29,9.7a3.6,3.6,0,0,0,.12.39A.86.86,0,0,1,46.29,9.7Z" transform="translate(55.43 55.25)"/><path class="cls-3" d="M22.57,7.23H3a2.92,2.92,0,0,0-3,3v17a2.92,2.92,0,0,0,3,3h19.6a2.92,2.92,0,0,0,3-3v-17A3,3,0,0,0,22.57,7.23Zm.49,19a1.52,1.52,0,0,1-1.48,1.48H4a1.52,1.52,0,0,1-1.48-1.48v-15A1.52,1.52,0,0,1,4,9.7H21.58a1.52,1.52,0,0,1,1.48,1.48Z" transform="translate(55.43 55.25)"/><path class="cls-3" d="M22.57,35.64H3a2.92,2.92,0,0,0-3,3v17a2.92,2.92,0,0,0,3,3h19.6a2.92,2.92,0,0,0,3-3v-17A3,3,0,0,0,22.57,35.64Zm.49,19a1.52,1.52,0,0,1-1.48,1.48H4a1.52,1.52,0,0,1-1.48-1.48v-15A1.52,1.52,0,0,1,4,38.11H21.58a1.52,1.52,0,0,1,1.48,1.48Z" transform="translate(55.43 55.25)"/><path class="cls-3" d="M53.06,35.64H33.46a2.92,2.92,0,0,0-3,3v17a2.92,2.92,0,0,0,3,3h19.6a2.92,2.92,0,0,0,3-3v-17A3,3,0,0,0,53.06,35.64Zm.49,19a1.52,1.52,0,0,1-1.48,1.48H34.45A1.52,1.52,0,0,1,33,54.65v-15a1.52,1.52,0,0,1,1.48-1.48H52.07a1.52,1.52,0,0,1,1.48,1.48Z" transform="translate(55.43 55.25)"/><path class="cls-3" d="M54.65,19.21c-.4,0-.79-.1-1.19-.1v7.13A1.52,1.52,0,0,1,52,27.72H34.45A1.52,1.52,0,0,1,33,26.23v-15A1.52,1.52,0,0,1,34.45,9.7h9.7a4.06,4.06,0,0,1-.1-1.09,6.68,6.68,0,0,1,.2-1.39H33.46a2.92,2.92,0,0,0-3,3v17a2.92,2.92,0,0,0,3,3h19.6a2.92,2.92,0,0,0,3-3V19A6.68,6.68,0,0,1,54.65,19.21Z" transform="translate(55.43 55.25)"/><path class="cls-3" d="M54.65,17.13A3.57,3.57,0,0,1,51,13.56V12.28H49.7a3.55,3.55,0,0,1-3.56-3.56A3.57,3.57,0,0,1,49.7,5H51V3.56a3.61,3.61,0,0,1,7.23,0V4.85H59.5a3.55,3.55,0,0,1,3.56,3.56,3.57,3.57,0,0,1-3.56,3.66H58.31v1.29A3.68,3.68,0,0,1,54.65,17.13ZM49.7,7.33a1.23,1.23,0,0,0-1.19,1.29A1.2,1.2,0,0,0,49.7,9.8h3.66v3.66a1.2,1.2,0,0,0,1.19,1.19,1.23,1.23,0,0,0,1.29-1.19V9.8H59.5a1.23,1.23,0,0,0,1.19-1.29A1.2,1.2,0,0,0,59.5,7.33H55.83V3.56a1.23,1.23,0,0,0-1.29-1.19,1.2,1.2,0,0,0-1.19,1.19V7.33Z" transform="translate(55.43 55.25)"/></g></g></svg>