<svg xmlns="http://www.w3.org/2000/svg" xmlns:xlink="http://www.w3.org/1999/xlink" viewBox="0 0 176 176"><defs><style>.cls-1{fill:none;}.cls-2{fill:url(#linear-gradient);}.cls-3{fill:#fff;}</style><linearGradient id="linear-gradient" x1="3.45" y1="15.81" x2="140.08" y2="152.45" gradientUnits="userSpaceOnUse"><stop offset="0" stop-color="#212121" stop-opacity="0.2"/><stop offset="1" stop-color="#212121" stop-opacity="0"/></linearGradient></defs><title>Instant 1</title><g id="Layer_2" data-name="Layer 2"><g id="instant"><path class="cls-1" d="M2,54.68a5.58,5.58,0,0,1-2-4.3V21.48a.66.66,0,0,1,.65-.65H24.42s-4.14-4.09-4.34-4.33a5.31,5.31,0,0,1-1.86-4.13,9.09,9.09,0,0,1,1.38-4.21,8.1,8.1,0,0,0,1.22-3.6,4,4,0,0,0-.77-2.5,1.25,1.25,0,0,1-.42-.47l-.06-.06c-.32-.26-.7-.47-.7-.88A.65.65,0,0,1,19.53,0c.36,0,.61.3.88.52a5.14,5.14,0,0,1,.5.53c.07.06,6.09,6,6.2,6.17a6,6,0,0,0,.24-1.68,3.09,3.09,0,0,0-.59-1.95c-.29-.36-.71-.53-.71-1A.65.65,0,0,1,26.68,2c.44,0,.74.38,1,.78.27.13,18,17.88,18.19,18.09h.3a.68.68,0,0,1,.65.65v.05s4,3.66,4.13,3.85h.43A4.53,4.53,0,0,1,55,27.1c.26.21,47.74,47.59,47.93,47.83a87.58,87.58,0,0,0,13.4-46.69,87.92,87.92,0,1,0-57.88,82.71C58.18,110.74,2.23,54.93,2,54.68Z" transform="translate(59.71 59.76)"/><path class="cls-2" d="M55,27.1a4.53,4.53,0,0,0-3.54-1.72H51c-.12-.19-4.13-3.85-4.13-3.85v-.05a.68.68,0,0,0-.65-.65h-.3c-.17-.21-17.92-18-18.19-18.09-.29-.4-.6-.78-1-.78A.65.65,0,0,0,26,2.6c0,.45.42.62.71,1a3.09,3.09,0,0,1,.59,1.95,6,6,0,0,1-.24,1.68C27,7.09,21,1.11,20.9,1a5.14,5.14,0,0,0-.5-.53C20.13.3,19.88,0,19.53,0a.65.65,0,0,0-.65.65c0,.41.37.62.7.88l.06.06a1.32,1.32,0,0,1,.42.47,4,4,0,0,1,.77,2.5,8.1,8.1,0,0,1-1.22,3.6,9.09,9.09,0,0,0-1.38,4.21,5.31,5.31,0,0,0,1.86,4.13c.2.25,4.3,4.3,4.34,4.33H.65a.66.66,0,0,0-.65.65v28.9a5.58,5.58,0,0,0,2,4.3c.21.25,56.16,56.07,56.39,56.27a88.27,88.27,0,0,0,44.47-36C102.69,74.69,55.21,27.31,55,27.1Z" transform="translate(59.71 59.76)"/><path class="cls-3" d="M19.53,0a.65.65,0,0,0-.65.65c0,.41.37.62.7.88a3.86,3.86,0,0,1,1.25,3,8.1,8.1,0,0,1-1.22,3.6,9.09,9.09,0,0,0-1.38,4.21,5.28,5.28,0,0,0,2.24,4.43.66.66,0,0,0,.89-.16.69.69,0,0,0-.16-.92,3.81,3.81,0,0,1-1.67-3.36,8.17,8.17,0,0,1,1.22-3.62,9,9,0,0,0,1.38-4.19,5.38,5.38,0,0,0-1.73-4C20.13.3,19.88,0,19.53,0Zm7.16,2A.65.65,0,0,0,26,2.6c0,.45.42.62.71,1a3.09,3.09,0,0,1,.59,1.95,6,6,0,0,1-.59,2.64A7.46,7.46,0,0,0,26,11.39a4.27,4.27,0,0,0,1.55,3.44.65.65,0,0,0,.81-1,2.91,2.91,0,0,1-1.06-2.42,6.07,6.07,0,0,1,.59-2.66,7.37,7.37,0,0,0,.71-3.19,4.5,4.5,0,0,0-.84-2.69C27.48,2.4,27.16,2,26.68,2ZM0,21.48v28.9A5.6,5.6,0,0,0,5.59,56H41.27a5.62,5.62,0,0,0,5.59-5.59V47.51h4.56A4.56,4.56,0,0,0,56,43v-13a4.56,4.56,0,0,0-4.56-4.56H46.86V21.48a.68.68,0,0,0-.65-.65H.65A.66.66,0,0,0,0,21.48Zm1.3.65H16.92v8.46H13.67a.66.66,0,0,0-.65.65V41.65a.68.68,0,0,0,.65.65h7.81a.68.68,0,0,0,.65-.65V31.24a.68.68,0,0,0-.65-.65H18.22V22.13H45.56V50.36s0,0,0,0a4.3,4.3,0,0,1-4.29,4.29H5.59A4.27,4.27,0,0,1,1.3,50.38Zm45.56,4.56h4.56a3.23,3.23,0,0,1,3.25,3.25V43a3.23,3.23,0,0,1-3.25,3.25H46.86ZM14.32,31.89h6.51V41H14.32Z" transform="translate(59.71 59.76)"/></g></g></svg>