<svg xmlns="http://www.w3.org/2000/svg" xmlns:xlink="http://www.w3.org/1999/xlink" viewBox="0 0 176 176"><defs><style>.cls-1{fill:none;}.cls-2{fill:url(#linear-gradient);}.cls-3{fill:#fff;}</style><linearGradient id="linear-gradient" x1="14" y1="-2.78" x2="157.75" y2="140.97" gradientUnits="userSpaceOnUse"><stop offset="0" stop-color="#212121" stop-opacity="0.2"/><stop offset="1" stop-color="#212121" stop-opacity="0"/></linearGradient></defs><title>instant 3</title><g id="Layer_2" data-name="Layer 2"><g id="Instant"><path class="cls-1" d="M6,34.76a1.22,1.22,0,0,1,.43-2.36h0l0-.09A74.37,74.37,0,0,1,.79,26.66a1.22,1.22,0,0,1,.43-2.36H6.48l0-.09A74.39,74.39,0,0,1,.79,18.56a1.22,1.22,0,0,1,.43-2.36h10.5l0-.09A74.31,74.31,0,0,1,6,10.46,1.22,1.22,0,0,1,6.47,8.1H17l0-.09a74.31,74.31,0,0,1-5.65-5.65A1.22,1.22,0,0,1,11.72,0h15a1.22,1.22,0,0,1,1.14.79,29.05,29.05,0,0,1,3.53,3.53h0V3.82a3,3,0,0,1,3-3.11H62A2.91,2.91,0,0,1,64.33,2c.27.19,51.94,51.9,52.11,52.12a88,88,0,1,0-81,53.6,87.68,87.68,0,0,0,35.79-7.59C71.12,100,6.17,35.08,6,34.76Z" transform="translate(52.58 68.33)"/><path class="cls-2" d="M64.33,2A2.91,2.91,0,0,0,62,.72H34.41a3,3,0,0,0-3,3.11v.51h0A29.05,29.05,0,0,0,27.91.79,1.22,1.22,0,0,0,26.77,0h-15a1.22,1.22,0,0,0-.43,2.36A74.31,74.31,0,0,0,16.94,8l0,.09H6.47A1.22,1.22,0,0,0,6,10.46a74.31,74.31,0,0,0,5.65,5.65l0,.09H1.22a1.22,1.22,0,0,0-.43,2.36,74.39,74.39,0,0,0,5.65,5.65l0,.09H1.22a1.22,1.22,0,0,0-.43,2.36,74.37,74.37,0,0,0,5.65,5.65l0,.09h0A1.22,1.22,0,0,0,6,34.76c.12.33,65.07,65.22,65.17,65.33a88.32,88.32,0,0,0,45.23-46C116.27,53.85,64.6,2.14,64.33,2Z" transform="translate(52.58 68.33)"/><path class="cls-3" d="M64.95,12.61H63.07V3.83A1.17,1.17,0,0,0,62,2.6H34.41a1.17,1.17,0,0,0-1.09,1.23v2.5H31.44V3.82a3,3,0,0,1,3-3.11H62a3,3,0,0,1,3,3.11Z" transform="translate(52.58 68.33)"/><path class="cls-3" d="M34.56,31.35H28.8a2.88,2.88,0,0,1-2.12-.93,3.17,3.17,0,0,1-.85-2.18V10.67a3,3,0,0,1,3-3.11H56.38a3,3,0,0,1,3,3.11V12.6H57.46V10.69a1.17,1.17,0,0,0-1.09-1.23H28.81a1.17,1.17,0,0,0-1.09,1.23V28.24a1.3,1.3,0,0,0,.34.89,1,1,0,0,0,.75.34h5.76Z" transform="translate(52.58 68.33)"/><path class="cls-3" d="M66.73,38.78H39.15a3,3,0,0,1-3-3.11V18.09a3,3,0,0,1,3-3.11H66.74a3,3,0,0,1,3,3.11V35.68A3,3,0,0,1,66.73,38.78ZM39.16,16.87a1.17,1.17,0,0,0-1.09,1.23V35.66a1.17,1.17,0,0,0,1.09,1.23H66.73a1.17,1.17,0,0,0,1.09-1.23V18.11a1.17,1.17,0,0,0-1.09-1.23Z" transform="translate(52.58 68.33)"/><rect class="cls-3" x="89.71" y="89.29" width="31.94" height="4.01"/><path class="cls-3" d="M26.77,2.45h-15a1.22,1.22,0,0,1,0-2.45h15a1.22,1.22,0,1,1,0,2.45Z" transform="translate(52.58 68.33)"/><path class="cls-3" d="M21.52,10.55h-15a1.22,1.22,0,0,1,0-2.45h15a1.22,1.22,0,1,1,0,2.45Z" transform="translate(52.58 68.33)"/><path class="cls-3" d="M21.52,26.75H1.22a1.22,1.22,0,0,1,0-2.45H21.52a1.22,1.22,0,1,1,0,2.45Z" transform="translate(52.58 68.33)"/><path class="cls-3" d="M21.52,34.84h-15a1.22,1.22,0,0,1,0-2.45h15a1.22,1.22,0,1,1,0,2.45Z" transform="translate(52.58 68.33)"/><path class="cls-3" d="M21.52,18.65H1.22a1.22,1.22,0,0,1,0-2.45H21.52a1.22,1.22,0,1,1,0,2.45Z" transform="translate(52.58 68.33)"/></g></g></svg>