<svg xmlns="http://www.w3.org/2000/svg" xmlns:xlink="http://www.w3.org/1999/xlink" viewBox="0 0 176 176"><defs><style>.cls-1{fill:none;}.cls-2{fill:url(#linear-gradient);}.cls-3{fill:#fff;}</style><linearGradient id="linear-gradient" x1="11.67" y1="11.67" x2="163.74" y2="163.74" gradientUnits="userSpaceOnUse"><stop offset="0" stop-color="#212121" stop-opacity="0.2"/><stop offset="1" stop-color="#212121" stop-opacity="0"/></linearGradient></defs><title>Limit 2</title><g id="Layer_2" data-name="Layer 2"><g id="Limit"><path class="cls-1" d="M13.45,69.76l-.71-.71L12,68.34A39.82,39.82,0,1,1,68.34,12l.71.71.71.71L123.5,67.19a87.93,87.93,0,1,0-56.26,56.36Z" transform="translate(48.18 48.08)"/><path class="cls-2" d="M69.76,13.45l-.71-.71L68.34,12A39.82,39.82,0,1,0,12,68.34l.71.71.71.71,53.79,53.79A88.21,88.21,0,0,0,123.5,67.19Z" transform="translate(48.18 48.08)"/><path class="cls-3" d="M57.38,18.46a27.25,27.25,0,0,0-35.46,1.27l3,3a22.93,22.93,0,0,1,29.37-1.24ZM44.06,37.58,60.22,21a1.2,1.2,0,0,0-1.69-1.69L42.43,35.82a4.76,4.76,0,1,0,1.63,1.76ZM38.4,39.83a1.43,1.43,0,1,1,1.43,1.43A1.43,1.43,0,0,1,38.4,39.83Zm-31.15,0A32.59,32.59,0,1,1,39.83,72.42,32.59,32.59,0,0,1,7.25,39.83ZM0,39.83A39.83,39.83,0,1,0,39.83,0,39.84,39.84,0,0,0,0,39.83Z" transform="translate(48.18 48.08)"/></g></g></svg>