<svg xmlns="http://www.w3.org/2000/svg" xmlns:xlink="http://www.w3.org/1999/xlink" viewBox="0 0 176 176"><defs><style>.cls-1{fill:none;}.cls-2{fill:url(#linear-gradient);}.cls-3{fill:url(#linear-gradient-2);}.cls-4{fill:#fff;}</style><linearGradient id="linear-gradient" x1="6.38" y1="16.9" x2="158.49" y2="169.01" gradientUnits="userSpaceOnUse"><stop offset="0" stop-color="#212121" stop-opacity="0.2"/><stop offset="1" stop-color="#212121" stop-opacity="0"/></linearGradient><linearGradient id="linear-gradient-2" x1="43.61" y1="-2.28" x2="177.67" y2="131.78" xlink:href="#linear-gradient"/></defs><title>Limit or pending</title><g id="Layer_2" data-name="Layer 2"><g id="Pending"><path class="cls-1" d="M12,68.31A39.84,39.84,0,0,1,35.43.18s82.08,82.3,82.18,82.29l.1-.19h0c0-.15-76.14-76.37-76.38-76.38V0a39.67,39.67,0,0,1,7.4,1l-.14.54c.28.06,2.35,2.17,2.47,2.2l.53-2a39.49,39.49,0,0,1,6.9,2.87l-.16.27A29.41,29.41,0,0,1,60.46,7l0,0L61,6.06a39.91,39.91,0,0,1,5.92,4.55l0,0c.25.22,57,56.92,57.07,57a87.93,87.93,0,1,0-56.2,56.38Z" transform="translate(47.72 47.56)"/><path class="cls-2" d="M35.43.18A39.84,39.84,0,0,0,12,68.31l55.74,55.74a88.26,88.26,0,0,0,49.83-41.58C117.51,82.48,35.43.18,35.43.18Z" transform="translate(47.72 47.56)"/><path class="cls-3" d="M66.91,10.65l0,0A39.91,39.91,0,0,0,61,6.06L60.5,7l0,0a29.41,29.41,0,0,0-2.13-2.13l.16-.27a39.49,39.49,0,0,0-6.9-2.87l-.53,2c-.11,0-2.18-2.14-2.47-2.2L48.74,1a39.67,39.67,0,0,0-7.4-1V5.9c.24,0,76.37,76.22,76.38,76.38h0A87.49,87.49,0,0,0,124,67.67C123.88,67.57,67.16,10.87,66.91,10.65Z" transform="translate(47.72 47.56)"/><path class="cls-4" d="M39.86,73.74A33.94,33.94,0,0,1,35.43,6.15v-6a39.85,39.85,0,1,0,44,44h-6A34,34,0,0,1,39.86,73.74Z" transform="translate(47.72 47.56)"/><path class="cls-4" d="M67.91,38.31H44a4.4,4.4,0,0,0-2.68-2.68V11.74h-3V35.63A4.42,4.42,0,1,0,44,41.26H67.91Z" transform="translate(47.72 47.56)"/><path class="cls-4" d="M55.53,9.7l3-5.13a39.5,39.5,0,0,0-6.9-2.87L50.06,7.4A33.46,33.46,0,0,1,55.53,9.7Z" transform="translate(47.72 47.56)"/><path class="cls-4" d="M73.74,38.31h5.9a39.94,39.94,0,0,0-1-7.4L73,32.43A34.3,34.3,0,0,1,73.74,38.31Z" transform="translate(47.72 47.56)"/><path class="cls-4" d="M62.76,14.79l4.19-4.19A39.91,39.91,0,0,0,61,6.06l-3,5.12A34.45,34.45,0,0,1,62.76,14.79Z" transform="translate(47.72 47.56)"/><path class="cls-4" d="M68.46,21.56l5.12-3A40,40,0,0,0,69,12.69l-4.19,4.19A34.4,34.4,0,0,1,68.46,21.56Z" transform="translate(47.72 47.56)"/><path class="cls-4" d="M47.21,6.65,48.74,1a39.67,39.67,0,0,0-7.4-1V5.9A34.27,34.27,0,0,1,47.21,6.65Z" transform="translate(47.72 47.56)"/><path class="cls-4" d="M72.24,29.58,78,28a39.41,39.41,0,0,0-2.88-6.9l-5.13,3A33.48,33.48,0,0,1,72.24,29.58Z" transform="translate(47.72 47.56)"/></g></g></svg>