<svg xmlns="http://www.w3.org/2000/svg" xmlns:xlink="http://www.w3.org/1999/xlink" viewBox="0 0 176 176"><defs><style>.cls-1{fill:none;}.cls-2{fill:url(#linear-gradient);}.cls-3{fill:#fff;}</style><linearGradient id="linear-gradient" x1="-2.79" y1="3.42" x2="147.02" y2="153.23" gradientUnits="userSpaceOnUse"><stop offset="0" stop-color="#212121" stop-opacity="0.2"/><stop offset="1" stop-color="#212121" stop-opacity="0"/></linearGradient></defs><title>Most recent</title><g id="Layer_2" data-name="Layer 2"><g id="Most_Recent" data-name="Most Recent"><path class="cls-1" d="M.78,56.14a1.08,1.08,0,0,1-.78-1V1.07A1.08,1.08,0,0,1,1.07,0H41.37a1.06,1.06,0,0,1,1,.76c.35.1,65.41,63.92,65.5,64A87.93,87.93,0,1,0,59,113.28C58.91,113.18.88,56.47.78,56.14Z" transform="translate(61.63 56.48)"/><path class="cls-2" d="M42.38.76a1.06,1.06,0,0,0-1-.76H1.07A1.08,1.08,0,0,0,0,1.07V55.14a1.08,1.08,0,0,0,.78,1c.1.33,58.13,57,58.21,57.14a88.29,88.29,0,0,0,48.89-48.53C107.79,64.68,42.73.87,42.38.76Z" transform="translate(61.63 56.48)"/><path class="cls-3" d="M15.89,56.2H1.07A1.08,1.08,0,0,1,0,55.14V1.07A1.08,1.08,0,0,1,1.07,0H41.37a1.08,1.08,0,0,1,1.07,1.07V28.32a1.08,1.08,0,0,1-1.07,1.07,1.15,1.15,0,0,1-1.07-1.07V2.13H2.22V54H16A1.08,1.08,0,0,1,17,55,1.24,1.24,0,0,1,15.89,56.2Z" transform="translate(61.63 56.48)"/><path class="cls-3" d="M36.76,67.57A17.76,17.76,0,1,1,54.52,49.81,17.81,17.81,0,0,1,36.76,67.57Zm0-33.3A15.54,15.54,0,1,0,52.3,49.81,15.61,15.61,0,0,0,36.76,34.27Z" transform="translate(61.63 56.48)"/><path class="cls-3" d="M47.86,50.87H36.76a1.08,1.08,0,0,1-1.07-1.07V38.44a1.08,1.08,0,0,1,1.07-1.07,1.15,1.15,0,0,1,1.07,1.07V48.66h9.94a1.11,1.11,0,0,1,.09,2.22Z" transform="translate(61.63 56.48)"/><path class="cls-3" d="M32.76,9.41H9.06A1.08,1.08,0,0,1,8,8.35,1.15,1.15,0,0,1,9.06,7.28H32.76a1.07,1.07,0,0,1,0,2.13Z" transform="translate(61.63 56.48)"/><path class="cls-3" d="M32.76,15.8H9.06A1.08,1.08,0,0,1,8,14.74a1.15,1.15,0,0,1,1.07-1.07H32.76a1.07,1.07,0,0,1,0,2.13Z" transform="translate(61.63 56.48)"/><path class="cls-3" d="M32.76,22.29H9.06A1.08,1.08,0,0,1,8,21.22a1.15,1.15,0,0,1,1.07-1.07H32.76a1.07,1.07,0,0,1,0,2.13Z" transform="translate(61.63 56.48)"/><path class="cls-3" d="M31,28.68H9.06A1.08,1.08,0,0,1,8,27.61a1.15,1.15,0,0,1,1.07-1.07H31a1.07,1.07,0,1,1,0,2.13Z" transform="translate(61.63 56.48)"/><path class="cls-3" d="M19.44,35.16H9.06A1.08,1.08,0,0,1,8,34.09,1.15,1.15,0,0,1,9.06,33H19.44a1.07,1.07,0,0,1,0,2.13Z" transform="translate(61.63 56.48)"/><path class="cls-3" d="M14.83,41.55H9.06A1.08,1.08,0,0,1,8,40.49a1.15,1.15,0,0,1,1.07-1.07h5.77a1.07,1.07,0,0,1,0,2.13Z" transform="translate(61.63 56.48)"/><path class="cls-3" d="M13.05,48h-4A1.08,1.08,0,0,1,8,47,1.15,1.15,0,0,1,9.06,45.9h4a1.07,1.07,0,1,1,0,2.13Z" transform="translate(61.63 56.48)"/></g></g></svg>