<svg xmlns="http://www.w3.org/2000/svg" xmlns:xlink="http://www.w3.org/1999/xlink" viewBox="0 0 176 176"><defs><style>.cls-1{fill:none;}.cls-2{fill:url(#linear-gradient);}.cls-3{fill:#fff;}</style><linearGradient id="linear-gradient" x1="20.82" y1="14.86" x2="143.27" y2="137.31" gradientUnits="userSpaceOnUse"><stop offset="0" stop-color="#212121" stop-opacity="0.2"/><stop offset="1" stop-color="#212121" stop-opacity="0"/></linearGradient></defs><title>open close 2</title><g id="Layer_2" data-name="Layer 2"><g id="Open_Close" data-name="Open Close"><path class="cls-1" d="M8.5,56.36h0l-.71-.71h0L7.09,55h0l-.71-.71h0l-.71-.71h0L5,52.83H5l-.71-.71h0l-.71-.71h0l-.71-.71h0L2.15,50h0l-.71-.71h0L.74,48.6A2.51,2.51,0,0,1,4.29,45l3.23,3.23V29.2a2.51,2.51,0,0,1,4.61-1.39c.28.19,8.56,8.55,8.61,8.58a2.62,2.62,0,0,1,1.82-.74h4c-.18-.16-5.24-5.19-5.43-5.47a2.63,2.63,0,0,1,1.48-4.81h4c-.18-.16-5.24-5.19-5.43-5.47a2.63,2.63,0,0,1,1.48-4.81h23.7a2.63,2.63,0,0,1,2.18,1.16c.28.19,7.58,7.49,7.77,7.77l0,0v-5.5s-6.3-6.26-6.39-6.4a2.51,2.51,0,0,1-.39-3.87L57,.74a2.51,2.51,0,0,1,.39-.32l.13-.07a2.53,2.53,0,0,1,.31-.16L58,.14l.3-.09.25,0,.24,0L59,0l.23,0a2.46,2.46,0,0,1,.33.1l.14,0A2.63,2.63,0,0,1,60,.37l.08,0a2.59,2.59,0,0,1,.4.33L68,8.25h0l49.21,49.21a87.94,87.94,0,1,0-53.82,53.82Z" transform="translate(53.79 59.75)"/><path class="cls-2" d="M68,8.25h0L60.53.75a2.59,2.59,0,0,0-.4-.33L60,.37a2.63,2.63,0,0,0-.35-.18l-.14,0a2.46,2.46,0,0,0-.33-.1L59,0l-.26,0L58.5,0l-.25,0L58,.14l-.17.05a2.53,2.53,0,0,0-.31.16l-.13.07A2.51,2.51,0,0,0,57,.74L49.44,8.25a2.51,2.51,0,0,0,.39,3.87c.09.14,6.38,6.38,6.39,6.4V24l0,0c-.19-.28-7.49-7.58-7.77-7.77a2.63,2.63,0,0,0-2.18-1.16H22.56a2.63,2.63,0,0,0-1.48,4.81c.19.28,5.25,5.31,5.43,5.47h-4a2.63,2.63,0,0,0-1.48,4.81c.19.28,5.25,5.31,5.43,5.47h-4a2.62,2.62,0,0,0-1.82.74S12.4,28,12.12,27.81A2.51,2.51,0,0,0,7.52,29.2V48.27L4.29,45A2.51,2.51,0,0,0,.74,48.6l.71.71h0l.71.71h0l.71.71h0l.71.71h0l.71.71h0l.71.71H5l.71.71h0l.71.71h0l.71.71h0l.71.71h0l.71.71h0l54.92,54.92a88.23,88.23,0,0,0,53.82-53.82Z" transform="translate(53.79 59.75)"/><path class="cls-3" d="M.74,45a2.51,2.51,0,0,0,0,3.55L8.24,56.1a2.59,2.59,0,0,0,.4.33l.08,0a2.63,2.63,0,0,0,.35.18l.14,0a2.46,2.46,0,0,0,.33.1l.23,0,.26,0,.24,0,.25,0,.3-.09.17-.05a2.53,2.53,0,0,0,.31-.16l.13-.07a2.51,2.51,0,0,0,.39-.32l7.51-7.51A2.51,2.51,0,0,0,15.77,45l-3.23,3.23V29.2a2.51,2.51,0,1,0-5,0V48.27L4.29,45A2.51,2.51,0,0,0,.74,45Z" transform="translate(53.79 59.75)"/><path class="cls-3" d="M68,11.81a2.51,2.51,0,0,0,0-3.55L60.53.75a2.59,2.59,0,0,0-.4-.33L60,.37a2.63,2.63,0,0,0-.35-.18l-.14,0a2.46,2.46,0,0,0-.33-.1L59,0l-.26,0L58.5,0l-.25,0L58,.14l-.17.05a2.53,2.53,0,0,0-.31.16l-.13.07A2.51,2.51,0,0,0,57,.74L49.44,8.25A2.51,2.51,0,1,0,53,11.81l3.23-3.23V27.65a2.51,2.51,0,0,0,5,0V8.58l3.23,3.23A2.51,2.51,0,0,0,68,11.81Z" transform="translate(53.79 59.75)"/><path class="cls-3" d="M19.92,38.29a2.63,2.63,0,0,1,2.63-2.63h23.7a2.63,2.63,0,1,1,0,5.27H22.56A2.63,2.63,0,0,1,19.92,38.29Z" transform="translate(53.79 59.75)"/><path class="cls-3" d="M19.92,28a2.63,2.63,0,0,1,2.63-2.63h23.7a2.63,2.63,0,1,1,0,5.27H22.56A2.63,2.63,0,0,1,19.92,28Z" transform="translate(53.79 59.75)"/><path class="cls-3" d="M19.92,17.72a2.63,2.63,0,0,1,2.63-2.63h23.7a2.63,2.63,0,1,1,0,5.27H22.56A2.63,2.63,0,0,1,19.92,17.72Z" transform="translate(53.79 59.75)"/></g></g></svg>