<svg xmlns="http://www.w3.org/2000/svg" xmlns:xlink="http://www.w3.org/1999/xlink" viewBox="0 0 176 176"><defs><style>.cls-1{fill:none;}.cls-2{fill:url(#linear-gradient);}.cls-3{fill:#fff;}</style><linearGradient id="linear-gradient" x1="20.01" y1="2.39" x2="151.84" y2="134.22" gradientUnits="userSpaceOnUse"><stop offset="0" stop-color="#212121" stop-opacity="0.2"/><stop offset="1" stop-color="#212121" stop-opacity="0"/></linearGradient></defs><title>open close</title><g id="Layer_2" data-name="Layer 2"><g id="open_close" data-name="open close"><path class="cls-1" d="M9.45,40.54l0,0h0l0,0-.67-.67h0L8,39.13l0,0H8l-.7-.7h0l-.66-.66h0l0,0h0l-.21-.21L5.87,37h0l-.21-.21L4.95,36,3.53,34.63,2.12,33.22l-.71-.71L.71,31.8,0,31.09l3-3,.71.71.71.71.71.71.79.79V16.53h7v.71L24.19,28h3L23,23.61h-.71V16.2h4.95L23,11.8h-.71V4.39h7.41V5.1l4.46,4.24V4.39h7.41V5.1L46,9.34V4.39h7.41V5.1l4.24,3.53v0l5.16-5.16h0L63.38,3h0l3-3h0l1.41,1.41,1.41,1.41.67.67h0l.66.66,0,0h0l.7.7h0l.66.66,0,0h0L72.3,6l.36.36h0l0,0,.67.67h0l.7.7h0l0,0,.67.67h0l.66.66,0,0h0L120,53.65l0,0h0a87.94,87.94,0,1,0-48.78,48.65Z" transform="translate(49.55 67.32)"/><path class="cls-2" d="M120,53.69h0l0,0L75.49,9.16h0l0,0-.66-.66h0l-.67-.67,0,0h0l-.7-.7h0l-.67-.67,0,0h0L72.3,6,72,5.63h0l0,0-.66-.66h0l-.7-.7h0l0,0-.66-.66h0l-.67-.67L67.75,1.41,66.33,0h0l-3,3h0l-.55.55h0L57.67,8.66v0L53.43,5.1V4.39H46V9.34L41.56,5.1V4.39H34.15V9.34L29.69,5.1V4.39H22.28V11.8H23l4.24,4.4H22.28v7.41H23L27.23,28h-3L12.88,17.24v-.71h-7V31.05l-.79-.79-.71-.71-.71-.71L3,28.14l-3,3,.71.71.71.71.71.71,1.41,1.41L4.95,36l.71.71.21.21h0l.49.49.21.21h0l0,0h0l.66.66h0l.7.7H8l0,0,.66.66h0l.67.67,0,0h0l0,0,61.81,61.81A88.28,88.28,0,0,0,120,53.71h0Z" transform="translate(49.55 67.32)"/><rect class="cls-3" x="71.83" y="71.71" width="7.41" height="7.41"/><rect class="cls-3" x="83.7" y="71.71" width="7.41" height="7.41"/><rect class="cls-3" x="95.57" y="71.71" width="7.41" height="7.41"/><rect class="cls-3" x="71.83" y="83.53" width="7.41" height="7.41"/><rect class="cls-3" x="83.7" y="83.53" width="7.41" height="7.41"/><rect class="cls-3" x="95.57" y="83.53" width="7.41" height="7.41"/><rect class="cls-3" x="71.83" y="95.34" width="7.41" height="7.41"/><rect class="cls-3" x="83.7" y="95.34" width="7.41" height="7.41"/><rect class="cls-3" x="112.37" y="70.82" width="7.01" height="20.44"/><rect class="cls-3" x="56.4" y="4.12" width="13.25" height="3.89" transform="translate(63.72 113.66) rotate(-45)"/><rect class="cls-3" x="67.45" y="-0.46" width="4.18" height="13.25" transform="translate(65.56 118.3) rotate(-45)"/><polygon class="cls-3" points="62.42 83.85 62.42 104.29 55.41 104.29 55.41 83.85 58.92 83.85 62.42 83.85"/><rect class="cls-3" x="6.05" y="32.46" width="13.25" height="3.89" transform="translate(28.93 86.36) rotate(-45)"/><rect class="cls-3" x="4.07" y="27.68" width="4.18" height="13.25" transform="translate(27.1 81.73) rotate(-45)"/></g></g></svg>