<svg xmlns="http://www.w3.org/2000/svg" xmlns:xlink="http://www.w3.org/1999/xlink" viewBox="0 0 176 176"><defs><style>.cls-1{fill:none;}.cls-2{fill:url(#linear-gradient);}.cls-3{fill:#fff;}</style><linearGradient id="linear-gradient" x1="-4.82" y1="4.82" x2="146.42" y2="156.06" gradientUnits="userSpaceOnUse"><stop offset="0" stop-color="#212121" stop-opacity="0.2"/><stop offset="1" stop-color="#212121" stop-opacity="0"/></linearGradient></defs><title>Pending 2</title><g id="Layer_2" data-name="Layer 2"><g id="Pending"><path class="cls-1" d="M.71,65H0V62.39H2a18.28,18.28,0,0,1-.35-3.54c0-7.73,4.82-16.5,11.84-19.71v0l.15,0c.49-.22,1-.41,1.49-.6,2.66-1.31,4.59-2.21,5.11-4.61l-.06-.06C19.91,33.58,9.8,23.47,9.57,23.23s-.47-.46-.71-.71A23.52,23.52,0,0,1,1.62,6.12,17.89,17.89,0,0,1,1.76,4L.71,2.58H0V0H45.68V.71l61.24,60.66a87.94,87.94,0,1,0-54.74,55.09Z" transform="translate(64.49 54.77)"/><path class="cls-2" d="M45.68.71V0H0V2.58H.71L1.76,4a17.89,17.89,0,0,0-.14,2.13,23.52,23.52,0,0,0,7.24,16.4c.23.24.46.48.71.71S19.91,33.58,20.15,33.81l.06.06c-.52,2.4-2.45,3.29-5.11,4.61-.5.18-1,.38-1.49.6l-.15,0v0c-7,3.21-11.84,12-11.84,19.71A18.28,18.28,0,0,0,2,62.39H0V65H.71l51.47,51.49a88.23,88.23,0,0,0,54.74-55.09Z" transform="translate(64.49 54.77)"/><path class="cls-3" d="M43.71,62.39a18.23,18.23,0,0,0,.35-3.54c0-8.32-5.59-17.52-13.49-20.38-3.11-1.55-5.24-2.5-5.24-6s2-4.33,5.05-5.9c8-2.82,13.67-12.06,13.67-20.45a18.32,18.32,0,0,0-.35-3.54h2V0H0V2.58H2a18.32,18.32,0,0,0-.35,3.54c0,8.38,5.67,17.62,13.65,20.44,3,1.57,5.07,2.47,5.07,5.91s-2.13,4.46-5.25,6c-.5.18-1,.38-1.49.6l-.15,0v0c-7,3.21-11.84,12-11.84,19.71A18.28,18.28,0,0,0,2,62.39H0V65H45.68V62.39Zm-3.66.46h-.16a.73.73,0,0,1-.52.22H6.47A.73.73,0,0,1,6,62.84H5.63a15.3,15.3,0,0,1-.88-5.1c0-8.55,7.06-15.58,16.12-16.48a34.11,34.11,0,0,0,.35-4c0-8-1.47-10.94-2.56-12.05C10.69,23.45,4.75,16.88,4.75,9a15.3,15.3,0,0,1,.88-5.1H40.05A15.27,15.27,0,0,1,40.93,9c0,7.79-5.86,14.32-13.76,16.1a4.58,4.58,0,0,0-.66.88c-.86,1.46-1.89,4.59-1.89,11.23a33.59,33.59,0,0,0,.36,4c7.87.85,14.2,6.33,15.64,13.39a1.77,1.77,0,0,1,.24.87c0,.44,0,.86,0,1.27s0,.62,0,.94A15.3,15.3,0,0,1,40.05,62.84Z" transform="translate(64.49 54.77)"/><path class="cls-3" d="M39.38,55.58c0-.44-1.34-1.78-7.27-2.68l-.12,0c-1.27-.11-7.05-1.18-8.53-11.69h0c0-.24-.06-.49-.09-.74l0-.31c0-.2,0-.41-.06-.62s0-.41,0-.62,0-.29,0-.44c0-.38,0-.77-.05-1.18s0-.79,0-1.17c0-.13,0-.25,0-.38s0-.49,0-.72,0-.3,0-.44,0-.4,0-.6,0-.3,0-.46,0-.35,0-.52,0-.31,0-.46,0-.31,0-.46,0-.3.05-.45l.05-.41c0-.15,0-.3.06-.45l.05-.35c0-.15.05-.3.08-.44l.06-.3.09-.43.05-.26.1-.43.05-.21.12-.42,0-.16.13-.42,0-.12.15-.42,0-.07.17-.42v0c.12-.29.25-.56.39-.8h0c1.17-2.16,2.55-2.46,3.2-2.46,2-.56,2.86-1.4,2.86-2,0-1-3.21-2.54-8.25-2.54s-8.25,1.5-8.25,2.54c0,.55.92,1.4,2.93,2,.67,0,2,.38,3.14,2.49l.18.36,0,0,.17.37,0,.08.15.38,0,.11.14.38,0,.15.12.39.05.19.11.4.06.24L22,29l.06.28.08.41.06.32c0,.14,0,.27.07.42s0,.25.06.37l.06.42.05.42c0,.14,0,.29.05.43s0,.31,0,.47,0,.29,0,.44,0,.34,0,.51,0,.3,0,.46,0,.38,0,.58,0,.3,0,.45,0,.47,0,.7,0,.25,0,.39q0,.55,0,1.12v0c0,.4,0,.79-.05,1.18,0,.15,0,.3,0,.45s0,.41,0,.61,0,.41-.06.61l0,.34c0,.24-.06.48-.09.72-1.48,10.54-7.27,11.6-8.53,11.7l-.11,0c-5.93.9-7.27,2.24-7.27,2.64a16.37,16.37,0,0,0,.51,6H38.87A16.2,16.2,0,0,0,39.38,55.58Z" transform="translate(64.49 54.77)"/></g></g></svg>