<svg xmlns="http://www.w3.org/2000/svg" xmlns:xlink="http://www.w3.org/1999/xlink" viewBox="0 0 176 176"><defs><style>.cls-1{fill:none;}.cls-2{fill:url(#linear-gradient);}.cls-3{fill:#fff;}</style><linearGradient id="linear-gradient" y1="55" x2="151.06" y2="55" gradientUnits="userSpaceOnUse"><stop offset="0" stop-color="#212121" stop-opacity="0.2"/><stop offset="1" stop-color="#212121" stop-opacity="0"/></linearGradient></defs><title>Withdrawal 3</title><g id="Layer_2" data-name="Layer 2"><g id="withdrwal2"><path class="cls-1" d="M4.59,53.54c-.25-.23-.48-.46-.71-.71A11.78,11.78,0,0,1,0,44.13a12.11,12.11,0,0,1,10.3-11.8l-1.42-2.1-.71.18V13.95a3.89,3.89,0,0,1,.49-1.89l0,0a3.83,3.83,0,0,1,2.13-1.77L43.45.14a3.17,3.17,0,0,1,2.61.34,4,4,0,0,1,1,1c.26.2,61.49,61.44,61.71,61.71l.1.1a87.7,87.7,0,0,0,7.19-34.89A87.94,87.94,0,1,0,61,110C60.9,109.85,4.81,53.78,4.59,53.54Z" transform="translate(59.9 59.63)"/><path class="cls-2" d="M47.1,1.45a4,4,0,0,0-1-1A3.17,3.17,0,0,0,43.45.14L10.76,10.27A3.83,3.83,0,0,0,8.63,12l0,0a3.89,3.89,0,0,0-.49,1.89V30.41l.71-.18,1.42,2.1A12.11,12.11,0,0,0,0,44.13a11.78,11.78,0,0,0,3.88,8.7c.23.25.46.48.71.71S60.9,109.85,61,110a88.3,88.3,0,0,0,47.87-46.73l-.1-.1C108.59,62.89,47.36,1.65,47.1,1.45Z" transform="translate(59.9 59.63)"/><path class="cls-3" d="M41.93,34.65H55.31V23.9H41.93ZM48,27.21a2.09,2.09,0,1,1-1.77,2.06A1.93,1.93,0,0,1,48,27.21Z" transform="translate(59.9 59.63)"/><path class="cls-3" d="M40.94,21.91H55.31v-8a3.3,3.3,0,0,0-3-3.51h-3L48.07,3.65a4.58,4.58,0,0,0-2-3.17A3.17,3.17,0,0,0,43.45.14L10.76,10.27A3.83,3.83,0,0,0,8.63,12l0,0a3.89,3.89,0,0,0-.49,1.89V30.41a15,15,0,0,1,4.17-.6A14.53,14.53,0,0,1,27,44.13a14,14,0,0,1-.51,3.74H52.27a3.3,3.3,0,0,0,3-3.51V36.64H40.94a1,1,0,0,1-1-1V22.91A1,1,0,0,1,40.94,21.91Zm-24-11.48L44,2a1.19,1.19,0,0,1,1,.14A2.66,2.66,0,0,1,46.12,4l1.15,6.44Z" transform="translate(59.9 59.63)"/><path class="cls-3" d="M12.35,32.15a12,12,0,1,0,0,24,12.41,12.41,0,0,0,11.56-7.75,11.6,11.6,0,0,0,.79-4.23A12.19,12.19,0,0,0,12.35,32.15ZM17.11,45.3H7.59a1.17,1.17,0,0,1,0-2.34h9.52a1.17,1.17,0,1,1,0,2.34Z" transform="translate(59.9 59.63)"/></g></g></svg>