<svg xmlns="http://www.w3.org/2000/svg" xmlns:xlink="http://www.w3.org/1999/xlink" viewBox="0 0 176 176"><defs><style>.cls-1{fill:none;}.cls-2{fill:url(#linear-gradient);}.cls-3{fill:#fff;}</style><linearGradient id="linear-gradient" x1="4.67" y1="8.08" x2="153.99" y2="157.41" gradientUnits="userSpaceOnUse"><stop offset="0" stop-color="#212121" stop-opacity="0.2"/><stop offset="1" stop-color="#212121" stop-opacity="0"/></linearGradient></defs><title>Withdrawal 2</title><g id="Layer_2" data-name="Layer 2"><g id="withdrwal1"><path class="cls-1" d="M23.5,58.78a1.68,1.68,0,0,1-.9-1.52V53.49h0v-.37C22.33,53,.79,31.26.79,31.26A6.75,6.75,0,0,1,0,30.9l.77-3A9.05,9.05,0,0,0,5,29a3.58,3.58,0,0,0,1.68-.36s-4.85-4.8-5-5.06A3.84,3.84,0,0,1,.15,20.48c0-2.29,1.59-4.06,4.34-4.57V13.47H7v.71L9.13,16a9.16,9.16,0,0,1,1.64.57l-.1.38c.29.1,6.85,6.54,7.07,6.64l.55-2.15-.08,0L9.12,11.84a4.52,4.52,0,0,1-.8-.32l.42-1.65a5,5,0,0,0,2.34.62,1.93,1.93,0,0,0,.91-.2c-.17-.15-2.36-2.33-2.54-2.6a2.17,2.17,0,0,1-1-1.88A2.58,2.58,0,0,1,10.79,3.3V2h1.38v.71h.71v.6a5,5,0,0,1,.53.11h.17v.05a5.26,5.26,0,0,1,.65.24l-.11.41s3.91,3.65,4,3.68C18.87,5.58,20.85,4,23.83,3.4V0h3.5V.71l2.82,2.8.1,0,.61.16a13,13,0,0,1,1.69.64l-.1.37c.28.11,13.46,13.24,13.46,13.24.21.14.42.3.63.45l.13.06v0l.48.34a20.28,20.28,0,0,1,2,1.82c.25.23.47.47.71.71s57.57,57.56,57.76,57.76a87.61,87.61,0,0,0,10.65-42,88,88,0,1,0-88,88,87.58,87.58,0,0,0,46.34-13.18C76.55,111.87,23.64,59,23.5,58.78Z" transform="translate(57.73 50.88)"/><path class="cls-2" d="M49.86,21.35c-.23-.24-.46-.48-.71-.71a20.28,20.28,0,0,0-2-1.82l-.48-.34v0l-.13-.06c-.21-.15-.42-.31-.63-.45,0,0-13.17-13.13-13.46-13.24l.1-.37a13,13,0,0,0-1.69-.64l-.61-.16-.1,0L27.33.71V0h-3.5V3.4c-3,.56-5,2.18-5.71,4.37-.1,0-4-3.68-4-3.68l.11-.41a5.26,5.26,0,0,0-.65-.24V3.38h-.17a5,5,0,0,0-.53-.11v-.6h-.71V2H10.79V3.3A2.58,2.58,0,0,0,8.4,5.81a2.17,2.17,0,0,0,1,1.88c.18.27,2.37,2.45,2.54,2.6a1.93,1.93,0,0,1-.91.2,5,5,0,0,1-2.34-.62l-.42,1.65a4.52,4.52,0,0,0,.8.32L18.2,21.4l.08,0-.55,2.15c-.22-.1-6.78-6.53-7.07-6.64l.1-.38A9.16,9.16,0,0,0,9.13,16L7,14.17v-.71H4.5v2.44C1.75,16.42.15,18.2.15,20.48A3.84,3.84,0,0,0,1.66,23.6c.2.26,5,5,5,5.06A3.58,3.58,0,0,1,5,29,9.05,9.05,0,0,1,.77,27.89L0,30.9a6.75,6.75,0,0,0,.79.36S22.33,53,22.6,53.11v.37h0v3.77a1.68,1.68,0,0,0,.9,1.52c.14.25,53.05,53.08,53.11,53.15a88.42,88.42,0,0,0,31-32.83C107.43,78.91,50.11,21.57,49.86,21.35Z" transform="translate(57.73 50.88)"/><path class="cls-3" d="M47.09,27.11l.17,0,.26,0Zm2,15.17c0-.07,0-.13.08-.2a15.92,15.92,0,0,0,1-2.8H38.43l4,3h6.66ZM38.23,18.79a1.33,1.33,0,0,0,1.19.74A1.35,1.35,0,0,0,40,19.4a1.32,1.32,0,0,0,.73-1.14,18,18,0,0,1,10,24.59A1.33,1.33,0,0,0,53.14,44,20.67,20.67,0,0,0,41.58,15.74a1.32,1.32,0,0,0-1.65-2l-2.18,1.07a1.33,1.33,0,0,0-.6,1.78ZM50.42,32.2H29l6.14,4.63H50.61A16.44,16.44,0,0,0,50.42,32.2ZM24.58,21.64a12.62,12.62,0,0,1-5.94-1.57l-1.07,4.19a14.92,14.92,0,0,0,6.08,1.54v3.4h3.54V25.5c4.11-.68,6.33-3.4,6.33-6.58s-1.68-5.22-5.94-6.72c-3.08-1.11-4.33-1.9-4.33-3s.75-2,3.08-2a11.12,11.12,0,0,1,5.15,1.25l1.07-4a12.94,12.94,0,0,0-5.22-1.18V0h-3.5V3.4c-3.83.72-6,3.18-6,6.37,0,3.47,2.61,5.26,6.44,6.54C26.9,17.2,28,18.06,28,19.42S26.65,21.64,24.58,21.64ZM7.2,22.23C5,21.43,4.09,20.87,4.09,20s.54-1.46,2.21-1.46a8,8,0,0,1,3.71.9l.77-2.91A9.32,9.32,0,0,0,7,15.73V13.47H4.5v2.44C1.75,16.42.15,18.2.15,20.48.15,23,2,24.26,4.78,25.19c1.93.64,2.75,1.26,2.75,2.24S6.53,29,5,29A9.05,9.05,0,0,1,.77,27.89L0,30.9A10.76,10.76,0,0,0,4.37,32v2.44H6.91V31.79c3-.49,4.55-2.44,4.55-4.73S10.26,23.31,7.2,22.23ZM43.85,45.82,25.32,32.2a2.72,2.72,0,0,0-2.72,2.72V57.26c0,1.2.77,1.4,2.72,2.72L43.85,73.61a2.73,2.73,0,0,0,2.72-2.73V48.54C46.54,47.55,43.85,45.82,43.85,45.82Zm15.8-10.9a2.72,2.72,0,0,0-2.73-2.72h-.24a22.29,22.29,0,0,1-1.93,12.54,3.11,3.11,0,0,1-2.8,1.77,3.1,3.1,0,0,1-2.8-1.78H45.66L46,45s2.72,1.56,2.72,2.72V61.35h8.17a2.72,2.72,0,0,0,2.72-2.72ZM12.27,6.77c-1.21-.44-1.71-.75-1.71-1.2s.3-.8,1.21-.8a4.37,4.37,0,0,1,2,.49l.42-1.59a5.07,5.07,0,0,0-2.06-.47V2H10.79V3.3A2.58,2.58,0,0,0,8.4,5.81c0,1.37,1,2.07,2.54,2.58,1.06.35,1.51.69,1.51,1.23s-.55.87-1.37.87a5,5,0,0,1-2.34-.62l-.42,1.65a5.92,5.92,0,0,0,2.4.61v1.34h1.39V12a2.67,2.67,0,0,0,2.5-2.59C14.61,8.14,13.94,7.36,12.27,6.77Z" transform="translate(57.73 50.88)"/></g></g></svg>